<svg width="392" height="392" viewBox="0 0 392 392" fill="none" xmlns="http://www.w3.org/2000/svg">
<path d="M259.634 152.557C259.634 164.979 249.573 175.049 237.162 175.049C224.752 175.049 214.691 164.979 214.691 152.557C214.691 140.135 224.752 130.065 237.162 130.065C249.573 130.065 259.634 140.135 259.634 152.557Z" fill="#6DED6B"/>
<path d="M182.722 152.936C182.722 165.358 172.662 175.428 160.251 175.428C147.84 175.428 137.779 165.358 137.779 152.936C137.779 140.514 147.84 130.444 160.251 130.444C172.662 130.444 182.722 140.514 182.722 152.936Z" fill="#6DED6B"/>
<path d="M84.5295 225.709C78.8098 213.657 75.95 200.098 75.95 185.033C75.95 171.776 77.9067 159.121 81.8202 147.069C85.6817 134.879 90.1295 123.423 95.1634 112.7L118.85 122.86C114.928 131.173 111.467 140.063 108.468 149.53C105.469 158.767 103.969 168.465 103.969 178.625C103.969 190.171 106.161 200.562 110.544 209.798C114.697 219.035 120.811 226.886 128.885 233.351C136.729 239.817 146.419 244.666 157.954 247.898C169.131 251.095 181.773 252.711 195.881 252.747C209.989 252.711 222.632 251.095 233.809 247.898C245.344 244.666 255.033 239.817 262.877 233.351C270.952 226.886 277.066 219.035 281.218 209.798C285.602 200.562 287.793 190.171 287.793 178.625C287.793 168.465 286.294 158.767 283.295 149.53C280.295 140.063 276.835 131.173 272.913 122.86L296.599 112.7C301.633 123.423 306.08 134.879 309.942 147.069C313.855 159.121 315.812 171.776 315.812 185.033C315.812 200.098 312.952 213.657 307.233 225.709C301.814 237.761 293.837 248.005 283.3 256.442C273.065 264.878 260.422 271.205 245.37 275.424C230.787 279.594 214.29 281.703 195.881 281.75C177.472 281.703 160.976 279.594 146.392 275.424C131.34 271.205 118.697 264.878 108.462 256.442C97.9255 248.005 89.9481 237.761 84.5295 225.709Z" fill="#6DED6B"/>
</svg>
