<svg width="129" height="44" viewBox="0 0 129 44" fill="none" xmlns="http://www.w3.org/2000/svg">
<path d="M1.05594 14.7503L13.5937 0V22H4.40847C0.657859 22 -1.37313 17.6081 1.05594 14.7503Z" fill="white"/>
<path d="M26.1306 29.2497L13.5928 44L13.5928 22L22.778 22C26.5286 22 28.5596 26.3919 26.1306 29.2497Z" fill="white"/>
<path d="M57.0462 15.1972H61.7435C61.6514 10.6446 57.7698 7.4209 52.033 7.4209C46.3751 7.4209 42.1251 10.6051 42.1383 15.3683C42.1383 19.2367 44.8883 21.4604 49.3225 22.6051L52.3883 23.3946C55.2962 24.1314 57.2172 25.0393 57.2304 27.1314C57.2172 29.4341 55.033 30.9735 51.8488 30.9735C48.7962 30.9735 46.4277 29.6051 46.2304 26.7762H41.4277C41.6251 32.1314 45.6119 35.1446 51.8883 35.1446C58.3488 35.1446 62.0988 31.9209 62.1119 27.1709C62.0988 22.4998 58.2435 20.3683 54.1909 19.4077L51.6646 18.7762C49.4541 18.2498 47.0593 17.3156 47.0856 15.0656C47.0988 13.0393 48.9146 11.5525 51.9672 11.5525C54.8751 11.5525 56.7962 12.9077 57.0462 15.1972Z" fill="white"/>
<path d="M72.0692 35.1446C75.2402 35.1446 77.135 33.6577 78.0034 31.9604H78.1613V34.7367H82.7402V21.2104C82.7402 15.8683 78.385 14.263 74.5297 14.263C70.2797 14.263 67.0166 16.1577 65.9639 19.842L70.4113 20.4735C70.885 19.092 72.2271 17.9077 74.556 17.9077C76.7666 17.9077 77.9771 19.0393 77.9771 21.0262V21.1051C77.9771 22.4735 76.5429 22.5393 72.9771 22.9209C69.056 23.342 65.306 24.513 65.306 29.0656C65.306 33.0393 68.2139 35.1446 72.0692 35.1446ZM73.306 31.6446C71.3192 31.6446 69.8981 30.7367 69.8981 28.9867C69.8981 27.1577 71.4902 26.3946 73.6218 26.0919C74.8718 25.9209 77.3718 25.6051 77.9902 25.1051V27.4867C77.9902 29.7367 76.1744 31.6446 73.306 31.6446Z" fill="white"/>
<path d="M93.3455 35.1446C96.5166 35.1446 98.4113 33.6577 99.2797 31.9604H99.4376V34.7367H104.017V21.2104C104.017 15.8683 99.6613 14.263 95.806 14.263C91.556 14.263 88.2929 16.1577 87.2402 19.842L91.6876 20.4735C92.1613 19.092 93.5034 17.9077 95.8323 17.9077C98.0429 17.9077 99.2534 19.0393 99.2534 21.0262V21.1051C99.2534 22.4735 97.8192 22.5393 94.2534 22.9209C90.3323 23.342 86.5823 24.513 86.5823 29.0656C86.5823 33.0393 89.4902 35.1446 93.3455 35.1446ZM94.5823 31.6446C92.5955 31.6446 91.1744 30.7367 91.1744 28.9867C91.1744 27.1577 92.7666 26.3946 94.8981 26.0919C96.1481 25.9209 98.6481 25.6051 99.2666 25.1051V27.4867C99.2666 29.7367 97.4508 31.6446 94.5823 31.6446Z" fill="white"/>
<path d="M123.661 15.1972H128.359C128.267 10.6446 124.385 7.4209 118.648 7.4209C112.99 7.4209 108.74 10.6051 108.753 15.3683C108.753 19.2367 111.503 21.4604 115.938 22.6051L119.003 23.3946C121.911 24.1314 123.832 25.0393 123.846 27.1314C123.832 29.4341 121.648 30.9735 118.464 30.9735C115.411 30.9735 113.043 29.6051 112.846 26.7762H108.043C108.24 32.1314 112.227 35.1446 118.503 35.1446C124.964 35.1446 128.714 31.9209 128.727 27.1709C128.714 22.4998 124.859 20.3683 120.806 19.4077L118.28 18.7762C116.069 18.2498 113.674 17.3156 113.701 15.0656C113.714 13.0393 115.53 11.5525 118.582 11.5525C121.49 11.5525 123.411 12.9077 123.661 15.1972Z" fill="white"/>
</svg>
