<svg width="175" height="17" viewBox="0 0 175 17" fill="none" xmlns="http://www.w3.org/2000/svg">
<path d="M164.266 1.68652H156.922V14.6172H164.266V1.68652Z" fill="#F26122"/>
<path d="M157.718 8.15183C157.704 5.65763 158.869 3.29563 160.876 1.74423C157.441 -0.883989 152.507 -0.502329 149.542 2.62083C146.577 5.74413 146.577 10.5599 149.542 13.6832C152.507 16.8061 157.441 17.1881 160.876 14.5595C158.869 13.0084 157.704 10.6464 157.718 8.15183Z" fill="#EA1D25"/>
<path d="M174.435 8.15177C174.432 11.2728 172.601 14.1192 169.716 15.4833C166.832 16.8474 163.4 16.4906 160.876 14.5642C164.511 11.7793 165.14 6.65627 162.283 3.11627C161.873 2.60357 161.401 2.14149 160.876 1.74004C163.4 -0.186617 166.832 -0.543566 169.716 0.820664C172.601 2.1849 174.432 5.03127 174.435 8.15177Z" fill="#F69E1E"/>
<path fill-rule="evenodd" clip-rule="evenodd" d="M119.295 11.6485C119.305 9.12762 117.221 8.03922 115.603 7.19352C114.579 6.65872 113.742 6.22132 113.742 5.58062C113.742 5.03452 114.272 4.45632 115.4 4.30702C116.741 4.17472 118.094 4.40902 119.311 4.98542L120.008 1.67841C118.821 1.23433 117.563 1.00473 116.295 1C112.383 1 109.664 3.08342 109.664 6.05972C109.664 8.25932 111.637 9.48292 113.129 10.2104C114.621 10.938 115.201 11.4501 115.184 12.1115C115.184 13.1367 113.958 13.5996 112.814 13.6166C111.403 13.6346 110.011 13.2935 108.769 12.6245L108.056 15.9315C109.461 16.4786 110.958 16.7536 112.466 16.7413C116.626 16.7413 119.362 14.6909 119.378 11.5162L119.295 11.6485ZM108.537 1.26551L105.222 16.5599H101.244L104.559 1.26551H108.537ZM125.213 11.1855L127.301 5.44842L128.512 11.1855H125.213ZM133.319 16.6099H129.639L129.158 14.3281H124.169L123.356 16.6099H119.179L125.13 2.43902C125.404 1.76439 126.057 1.32125 126.788 1.31464H130.103L133.319 16.6099ZM96.5189 16.5098L102.951 1.21543H98.6409L94.5139 11.6154L92.8559 2.76972C92.7089 1.87021 91.9289 1.21165 91.0159 1.21543H84.2699L84.1699 1.6614C85.5229 1.92596 86.8379 2.35871 88.0819 2.95112C88.6119 3.19962 88.9709 3.70892 89.0269 4.29092L92.1929 16.5098H96.5189Z" fill="white"/>
<g clip-path="url(#clip0_1738_895)">
<path fill-rule="evenodd" clip-rule="evenodd" d="M6.12307 4.00146H10.918C13.4924 4.00146 14.4616 5.30478 14.3118 7.21952C14.0642 10.3806 12.1532 12.1295 9.61838 12.1295H8.33858C7.99078 12.1295 7.75686 12.3597 7.66279 12.9836L7.11943 16.6101C7.08354 16.8452 6.95977 16.9814 6.77411 16.9999H3.76151C3.47808 16.9999 3.37782 16.7833 3.45208 16.3142L5.28885 4.6884C5.36064 4.22302 5.61561 4.00146 6.12307 4.00146Z" fill="#009EE3"/>
<path fill-rule="evenodd" clip-rule="evenodd" d="M26.9401 3.78613C28.5578 3.78613 30.0504 4.66367 29.8462 6.85071C29.5987 9.44991 28.2063 10.8881 26.0093 10.8943H24.0896C23.8136 10.8943 23.6799 11.1196 23.6081 11.5813L23.2368 13.9416C23.1811 14.298 22.9979 14.4738 22.7281 14.4738H20.9421C20.6574 14.4738 20.5584 14.2918 20.6215 13.8846L22.0957 4.42479C22.1687 3.95941 22.3432 3.78613 22.6613 3.78613H26.9364H26.9401ZM24.0314 8.85086H25.4858C26.3955 8.8162 26.9995 8.18621 27.0601 7.04998C27.0973 6.3482 26.6232 5.84569 25.8694 5.8494L24.5005 5.85559L24.0314 8.85086ZM34.7018 13.7497C34.8652 13.6012 35.031 13.5245 35.0075 13.7076L34.9493 14.1458C34.9196 14.3748 35.01 14.4961 35.2229 14.4961H36.8096C37.077 14.4961 37.2069 14.3884 37.2725 13.975L38.2503 7.83841C38.2998 7.53022 38.2243 7.37922 37.9904 7.37922H36.2452C36.088 7.37922 36.0113 7.46709 35.9704 7.70721L35.9061 8.08471C35.8727 8.28151 35.7823 8.31617 35.6981 8.11813C35.4023 7.41759 34.6473 7.10321 33.594 7.12796C31.1471 7.17871 29.4972 9.03652 29.3202 11.4179C29.184 13.2596 30.5034 14.7065 32.2437 14.7065C33.5061 14.7065 34.0705 14.3352 34.7067 13.7534L34.7018 13.7497ZM33.3725 12.8054C32.3192 12.8054 31.5852 11.9649 31.7375 10.9352C31.8897 9.90539 32.8749 9.06498 33.9282 9.06498C34.9815 9.06498 35.7155 9.90539 35.5632 10.9352C35.411 11.9649 34.427 12.8054 33.3725 12.8054ZM41.3557 7.35941H39.7467C39.415 7.35941 39.2801 7.60695 39.3853 7.91143L41.383 13.7609L39.4237 16.5445C39.259 16.7772 39.3865 16.9888 39.618 16.9888H41.4263C41.5317 17.001 41.6383 16.9826 41.7336 16.9359C41.8288 16.8892 41.9086 16.816 41.9635 16.7252L48.1075 7.91267C48.2968 7.64161 48.2077 7.35694 47.8971 7.35694H46.1853C45.892 7.35694 45.7744 7.47328 45.6061 7.71711L43.044 11.4303L41.8991 7.70845C41.8323 7.48318 41.6652 7.35941 41.357 7.35941H41.3557Z" fill="#113984"/>
<path fill-rule="evenodd" clip-rule="evenodd" d="M54.4991 3.78617C56.1168 3.78617 57.6095 4.66371 57.4053 6.85075C57.1578 9.44995 55.7653 10.8882 53.5684 10.8944H51.6499C51.3739 10.8944 51.2402 11.1196 51.1684 11.5813L50.7971 13.9416C50.7414 14.2981 50.5583 14.4738 50.2884 14.4738H48.5024C48.2177 14.4738 48.1187 14.2919 48.1818 13.8847L49.6584 4.42235C49.7315 3.95697 49.906 3.78369 50.2241 3.78369H54.4991V3.78617ZM51.5905 8.85089H53.0448C53.9545 8.81624 54.5585 8.18624 54.6192 7.05002C54.6563 6.34824 54.1823 5.84572 53.4285 5.84944L52.0596 5.85563L51.5905 8.85089V8.85089ZM62.2609 13.7498C62.4242 13.6012 62.5901 13.5245 62.5666 13.7077L62.5084 14.1458C62.4787 14.3748 62.569 14.4961 62.7819 14.4961H64.3687C64.636 14.4961 64.766 14.3884 64.8316 13.975L65.8094 7.83844C65.8589 7.53025 65.7834 7.37925 65.5495 7.37925H63.8068C63.6496 7.37925 63.5728 7.46713 63.532 7.70725L63.4676 8.08475C63.4342 8.28154 63.3439 8.3162 63.2597 8.11817C62.9639 7.41762 62.2089 7.10324 61.1556 7.128C58.7086 7.17874 57.0587 9.03655 56.8817 11.4179C56.7456 13.2596 58.065 14.7065 59.8052 14.7065C61.0677 14.7065 61.6321 14.3352 62.2683 13.7535L62.2609 13.7498ZM60.9328 12.8054C59.8795 12.8054 59.1455 11.965 59.2978 10.9352C59.45 9.90543 60.4352 9.06502 61.4885 9.06502C62.5418 9.06502 63.2758 9.90543 63.1235 10.9352C62.9713 11.965 61.9861 12.8054 60.9328 12.8054ZM68.2514 14.506H66.4196C66.3877 14.5074 66.3559 14.5018 66.3265 14.4895C66.2971 14.4772 66.2707 14.4586 66.2493 14.435C66.2279 14.4113 66.212 14.3832 66.2027 14.3527C66.1934 14.3222 66.191 14.29 66.1955 14.2585L67.8046 4.06465C67.8199 3.99508 67.8584 3.93276 67.9137 3.88781C67.969 3.84287 68.0378 3.81795 68.1091 3.81711H69.9409C69.9727 3.81569 70.0045 3.82131 70.034 3.8336C70.0634 3.84588 70.0897 3.86451 70.1112 3.88815C70.1326 3.9118 70.1485 3.93988 70.1578 3.97039C70.1671 4.00091 70.1695 4.03309 70.1649 4.06465L68.5559 14.2585C68.541 14.3285 68.5028 14.3914 68.4474 14.4368C68.3921 14.4822 68.323 14.5075 68.2514 14.5085V14.506Z" fill="#009EE3"/>
<path fill-rule="evenodd" clip-rule="evenodd" d="M3.12427 0H7.92412C9.2757 0 10.8798 0.04332 11.9516 0.990171C12.6683 1.62264 13.0445 2.6289 12.9579 3.71314C12.6633 7.37801 10.4713 9.43138 7.53052 9.43138H5.16402C4.76052 9.43138 4.49441 9.69872 4.38054 10.4215L3.71961 14.6298C3.67629 14.9021 3.5587 15.063 3.34829 15.0828H0.386447C0.0584528 15.0828 -0.0578933 14.8352 0.0275089 14.2882L2.15637 0.799562C2.24178 0.257443 2.54007 0 3.12427 0Z" fill="#113984"/>
<path fill-rule="evenodd" clip-rule="evenodd" d="M4.44946 9.9945L5.2874 4.68842C5.36042 4.22304 5.61539 4.00024 6.12285 4.00024H10.9178C11.7111 4.00024 12.3535 4.12402 12.856 4.35299C12.3746 7.61561 10.2642 9.42762 7.50167 9.42762H5.13887C4.82202 9.42886 4.58932 9.58729 4.44946 9.9945Z" fill="#172C70"/>
</g>
<defs>
<clipPath id="clip0_1738_895">
<rect width="70.1697" height="17" fill="white"/>
</clipPath>
</defs>
</svg>
