<svg width="176" height="33" viewBox="0 0 176 33" fill="none" xmlns="http://www.w3.org/2000/svg">
<g clip-path="url(#clip0_48_120)">
<path d="M44 9.67593H50.2773V27.6572H54.032V9.67593H60.3093V6.2146H44V9.67593Z" fill="white"/>
<path d="M64.4999 28.0386C66.7585 28.0386 68.7239 27.0119 69.3399 25.5159L69.6039 27.6572H72.7425V18.8572C72.7425 14.8386 70.3372 12.7266 66.4359 12.7266C62.5052 12.7266 59.9239 14.7799 59.9239 17.9186H62.9745C62.9745 16.3933 64.1479 15.5133 66.2599 15.5133C68.0785 15.5133 69.2519 16.3053 69.2519 18.2706V18.5932L64.9105 18.9159C61.4785 19.1799 59.5425 20.8519 59.5425 23.5213C59.5425 26.2492 61.4199 28.0386 64.4999 28.0386ZM65.6732 25.3399C64.0599 25.3399 63.1799 24.6946 63.1799 23.3746C63.1799 22.2012 64.0305 21.4679 66.2599 21.2626L69.2812 21.0279V21.7906C69.2812 24.0199 67.8732 25.3399 65.6732 25.3399Z" fill="white"/>
<path d="M78.0475 10.2627C79.2209 10.2627 80.1889 9.29467 80.1889 8.09201C80.1889 6.88934 79.2209 5.95068 78.0475 5.95068C76.8155 5.95068 75.8475 6.88934 75.8475 8.09201C75.8475 9.29467 76.8155 10.2627 78.0475 10.2627ZM76.2582 27.6573H79.8369V13.1667H76.2582V27.6573Z" fill="white"/>
<path d="M87.1422 27.6572V5.83325H83.5929V27.6572H87.1422Z" fill="white"/>
<path d="M93.2722 27.6572L95.0029 22.6999H103.011L104.742 27.6572H108.702L100.958 6.2146H97.1149L89.3709 27.6572H93.2722ZM98.5522 12.6093C98.7576 12.0226 98.9335 11.3773 99.0215 10.9666C99.0802 11.4066 99.2855 12.0519 99.4615 12.6093L101.926 19.5319H96.1175L98.5522 12.6093Z" fill="white"/>
<path d="M116.158 28.0386C118.358 28.0386 120.236 27.0706 121.116 25.3986L121.35 27.6572H124.636V5.83325H121.086V15.0146C120.177 13.5773 118.388 12.7266 116.364 12.7266C111.993 12.7266 109.353 15.9533 109.353 20.4706C109.353 24.9586 111.964 28.0386 116.158 28.0386ZM116.95 24.7532C114.457 24.7532 112.932 22.9346 112.932 20.3533C112.932 17.7719 114.457 15.9239 116.95 15.9239C119.444 15.9239 121.057 17.7426 121.057 20.3533C121.057 22.9639 119.444 24.7532 116.95 24.7532Z" fill="white"/>
<path d="M131.944 27.6572V19.4439C131.944 17.0973 133.322 15.9826 135.024 15.9826C136.725 15.9826 137.81 17.0679 137.81 19.0919V27.6572H141.389V19.4439C141.389 17.0679 142.709 15.9533 144.44 15.9533C146.141 15.9533 147.256 17.0386 147.256 19.1213V27.6572H150.805V18.1826C150.805 14.8386 148.869 12.7266 145.349 12.7266C143.149 12.7266 141.448 13.8119 140.714 15.4839C139.952 13.8119 138.426 12.7266 136.226 12.7266C134.144 12.7266 132.677 13.6653 131.944 14.8679L131.65 13.1666H128.365V27.6572H131.944Z" fill="white"/>
<path d="M156.107 10.2627C157.281 10.2627 158.249 9.29467 158.249 8.09201C158.249 6.88934 157.281 5.95068 156.107 5.95068C154.875 5.95068 153.907 6.88934 153.907 8.09201C153.907 9.29467 154.875 10.2627 156.107 10.2627ZM154.318 27.6573H157.897V13.1667H154.318V27.6573Z" fill="white"/>
<path d="M165.173 27.6572V19.8546C165.173 17.5079 166.522 15.9826 168.722 15.9826C170.57 15.9826 171.773 17.1559 171.773 19.5906V27.6572H175.351V18.7399C175.351 14.9853 173.474 12.7266 169.837 12.7266C167.871 12.7266 166.111 13.5773 165.202 15.0439L164.909 13.1666H161.594V27.6572H165.173Z" fill="white"/>
<path d="M0 8.92105C0 4.27023 3.77023 0.5 8.42105 0.5H23.5789C28.2298 0.5 32 4.27023 32 8.92105V24.0789C32 28.7298 28.2298 32.5 23.5789 32.5H8.42105C3.77023 32.5 0 28.7298 0 24.0789V8.92105Z" fill="#3C50E0"/>
<g filter="url(#filter0_d_48_120)">
<path d="M8.42139 8.92127C8.42139 7.99111 9.17543 7.23706 10.1056 7.23706C11.0358 7.23706 11.7898 7.99111 11.7898 8.92127V24.0792C11.7898 25.0093 11.0358 25.7634 10.1056 25.7634C9.17543 25.7634 8.42139 25.0093 8.42139 24.0792V8.92127Z" fill="white"/>
</g>
<g opacity="0.9" filter="url(#filter1_d_48_120)">
<path d="M14.7368 15.6576C14.7368 14.7274 15.4909 13.9734 16.421 13.9734C17.3512 13.9734 18.1052 14.7274 18.1052 15.6576V24.0786C18.1052 25.0088 17.3512 25.7629 16.421 25.7629C15.4909 25.7629 14.7368 25.0088 14.7368 24.0786V15.6576Z" fill="white"/>
</g>
<g opacity="0.7" filter="url(#filter2_d_48_120)">
<path d="M21.0522 11.4469C21.0522 10.5167 21.8063 9.7627 22.7365 9.7627C23.6666 9.7627 24.4207 10.5167 24.4207 11.4469V24.0785C24.4207 25.0086 23.6666 25.7627 22.7365 25.7627C21.8063 25.7627 21.0522 25.0086 21.0522 24.0785V11.4469Z" fill="white"/>
</g>
</g>
<defs>
<filter id="filter0_d_48_120" x="7.42139" y="6.73706" width="5.36841" height="20.5264" filterUnits="userSpaceOnUse" color-interpolation-filters="sRGB">
<feFlood flood-opacity="0" result="BackgroundImageFix"/>
<feColorMatrix in="SourceAlpha" type="matrix" values="0 0 0 0 0 0 0 0 0 0 0 0 0 0 0 0 0 0 127 0" result="hardAlpha"/>
<feOffset dy="0.5"/>
<feGaussianBlur stdDeviation="0.5"/>
<feComposite in2="hardAlpha" operator="out"/>
<feColorMatrix type="matrix" values="0 0 0 0 0 0 0 0 0 0 0 0 0 0 0 0 0 0 0.12 0"/>
<feBlend mode="normal" in2="BackgroundImageFix" result="effect1_dropShadow_48_120"/>
<feBlend mode="normal" in="SourceGraphic" in2="effect1_dropShadow_48_120" result="shape"/>
</filter>
<filter id="filter1_d_48_120" x="13.7368" y="13.4734" width="5.36841" height="13.7896" filterUnits="userSpaceOnUse" color-interpolation-filters="sRGB">
<feFlood flood-opacity="0" result="BackgroundImageFix"/>
<feColorMatrix in="SourceAlpha" type="matrix" values="0 0 0 0 0 0 0 0 0 0 0 0 0 0 0 0 0 0 127 0" result="hardAlpha"/>
<feOffset dy="0.5"/>
<feGaussianBlur stdDeviation="0.5"/>
<feComposite in2="hardAlpha" operator="out"/>
<feColorMatrix type="matrix" values="0 0 0 0 0 0 0 0 0 0 0 0 0 0 0 0 0 0 0.12 0"/>
<feBlend mode="normal" in2="BackgroundImageFix" result="effect1_dropShadow_48_120"/>
<feBlend mode="normal" in="SourceGraphic" in2="effect1_dropShadow_48_120" result="shape"/>
</filter>
<filter id="filter2_d_48_120" x="20.0522" y="9.2627" width="5.3685" height="18" filterUnits="userSpaceOnUse" color-interpolation-filters="sRGB">
<feFlood flood-opacity="0" result="BackgroundImageFix"/>
<feColorMatrix in="SourceAlpha" type="matrix" values="0 0 0 0 0 0 0 0 0 0 0 0 0 0 0 0 0 0 127 0" result="hardAlpha"/>
<feOffset dy="0.5"/>
<feGaussianBlur stdDeviation="0.5"/>
<feComposite in2="hardAlpha" operator="out"/>
<feColorMatrix type="matrix" values="0 0 0 0 0 0 0 0 0 0 0 0 0 0 0 0 0 0 0.12 0"/>
<feBlend mode="normal" in2="BackgroundImageFix" result="effect1_dropShadow_48_120"/>
<feBlend mode="normal" in="SourceGraphic" in2="effect1_dropShadow_48_120" result="shape"/>
</filter>
<clipPath id="clip0_48_120">
<rect width="176" height="32" fill="white" transform="translate(0 0.5)"/>
</clipPath>
</defs>
</svg>
