<svg width="161" height="38" viewBox="0 0 161 38" fill="none" xmlns="http://www.w3.org/2000/svg">
<path d="M32.4574 13.9978V25.9412C32.4574 28.368 31.2102 30.6227 29.1582 31.9129L19.5555 37.9522C19.3528 38.0812 19.0824 37.9337 19.0824 37.6941V33.4673C19.0824 32.773 19.4265 32.1279 20.004 31.7409L26.1293 27.6553C26.9833 27.0839 27.4994 26.1255 27.4994 25.0995V16.8669C27.4994 16.2095 27.8496 15.6013 28.4209 15.2695L31.5358 13.4755C31.9474 13.2421 32.4574 13.537 32.4574 14.01V13.9978Z" fill="#625DF5"/>
<path d="M31.714 10.4228L18.1486 18.2561C17.1963 18.8029 16.6127 19.8166 16.6127 20.9164V37.4184C16.6127 37.658 16.3546 37.8055 16.1519 37.6826L3.5818 30.3716C1.36391 29.0814 0 26.716 0 24.148V14.1582C0 11.1478 1.60352 8.3647 4.2146 6.85948L15.6542 0.248821C16.2256 -0.0829405 16.926 -0.0829405 17.4974 0.248821L20.3603 1.90149C20.9747 2.25782 20.9747 3.14252 20.3603 3.49886L6.70282 11.3813C5.75054 11.9281 5.16688 12.9418 5.16688 14.0415V23.5397C5.16688 24.6395 5.75054 25.6532 6.70282 26.2L11.2308 28.8111C11.3291 28.8663 11.4458 28.7988 11.4458 28.6882V19.2514C11.4458 17.3346 12.4656 15.5713 14.1245 14.6129L27.2475 7.03765C27.8618 6.68131 28.6237 6.71203 29.2073 7.11138L31.7693 8.86234C32.3283 9.24325 32.2976 10.0788 31.7078 10.4228H31.714Z" fill="#625DF5"/>
<path d="M47.2324 8.71675H51.6134V20.6159C51.6134 21.5925 51.747 22.4632 52.0142 23.2279C52.2814 23.9834 52.6776 24.6237 53.2027 25.1489C53.7371 25.6741 54.3959 26.0749 55.179 26.3513C55.9622 26.6185 56.8743 26.752 57.9154 26.752C58.9473 26.752 59.8548 26.6185 60.638 26.3513C61.4303 26.0749 62.0891 25.6741 62.6143 25.1489C63.1486 24.6237 63.5494 23.9834 63.8166 23.2279C64.0838 22.4632 64.2174 21.5925 64.2174 20.6159V8.71675H68.5984V21.1411C68.5984 22.5599 68.3588 23.8498 67.8797 25.0107C67.4006 26.1716 66.705 27.1667 65.7929 27.9959C64.8808 28.8251 63.7613 29.4654 62.4346 29.9169C61.1171 30.3683 59.6107 30.594 57.9154 30.594C56.2201 30.594 54.7091 30.3683 53.3824 29.9169C52.0649 29.4654 50.95 28.8251 50.0379 27.9959C49.1258 27.1667 48.4302 26.1716 47.9511 25.0107C47.472 23.8498 47.2324 22.5599 47.2324 21.1411V8.71675Z" fill="#101828"/>
<path d="M71.625 8.71675H76.0336V30.3176H71.625V8.71675Z" fill="#101828"/>
<path d="M78.0928 22.2329C78.0928 20.9338 78.337 19.7637 78.8253 18.7225C79.3136 17.6722 79.9862 16.7785 80.843 16.0414C81.7091 15.2951 82.7318 14.7239 83.9111 14.3277C85.0996 13.9223 86.3849 13.7196 87.7669 13.7196C88.3566 13.7196 88.937 13.7565 89.5083 13.8302C90.0887 13.9039 90.6415 14.0053 91.1667 14.1342C91.7011 14.2632 92.1986 14.4199 92.6593 14.6041C93.1292 14.7792 93.5438 14.9727 93.9031 15.1846V7.39001H97.9938V30.3176H93.9031V28.7836C93.5438 29.0324 93.1199 29.2673 92.6316 29.4884C92.1433 29.7096 91.6181 29.903 91.0561 30.0689C90.4941 30.2347 89.9091 30.3637 89.301 30.4558C88.7021 30.5572 88.1078 30.6079 87.5182 30.6079C86.1362 30.6079 84.8647 30.4052 83.7038 29.9998C82.5521 29.5944 81.5617 29.0232 80.7325 28.2861C79.9033 27.549 79.2537 26.6691 78.7838 25.6464C78.3232 24.6145 78.0928 23.4767 78.0928 22.2329ZM82.3909 22.2329C82.3909 22.887 82.5199 23.5043 82.7779 24.0848C83.045 24.6652 83.4228 25.1765 83.9111 25.6188C84.4086 26.0518 85.0029 26.3973 85.6939 26.6553C86.3941 26.9041 87.1773 27.0285 88.0433 27.0285C88.5961 27.0285 89.1489 26.9778 89.7018 26.8764C90.2546 26.7659 90.7843 26.6138 91.2911 26.4204C91.807 26.2269 92.2861 25.9919 92.7284 25.7155C93.1798 25.4391 93.5714 25.1305 93.9031 24.7896V19.1371C93.4885 18.8055 93.0508 18.5244 92.5902 18.2941C92.1295 18.0638 91.6596 17.8749 91.1805 17.7275C90.7014 17.5801 90.2177 17.4741 89.7294 17.4096C89.2411 17.3359 88.7666 17.2991 88.3059 17.2991C87.3661 17.2991 86.5277 17.4281 85.7906 17.686C85.0628 17.9348 84.4455 18.2803 83.9387 18.7225C83.4412 19.1648 83.0589 19.6853 82.7917 20.2842C82.5245 20.8831 82.3909 21.5326 82.3909 22.2329Z" fill="#101828"/>
<path d="M100.468 22.1085C100.468 21.0029 100.693 19.9479 101.145 18.9437C101.596 17.9302 102.246 17.0365 103.093 16.2626C103.941 15.4886 104.978 14.8713 106.203 14.4107C107.438 13.95 108.838 13.7196 110.404 13.7196C111.961 13.7196 113.362 13.9546 114.606 14.4245C115.859 14.8851 116.918 15.5209 117.784 16.3317C118.66 17.1424 119.328 18.096 119.788 19.1924C120.258 20.2888 120.493 21.4635 120.493 22.7166C120.493 22.8732 120.488 23.0436 120.479 23.2279C120.479 23.403 120.47 23.5642 120.452 23.7116H105.028C105.203 24.1999 105.484 24.6468 105.871 25.0522C106.268 25.4576 106.76 25.8077 107.35 26.1025C107.94 26.3973 108.622 26.6277 109.395 26.7935C110.169 26.9501 111.026 27.0285 111.966 27.0285C112.906 27.0285 113.841 26.9317 114.772 26.7382C115.702 26.5355 116.591 26.2822 117.439 25.9781L118.821 29.1015C118.286 29.3502 117.743 29.5714 117.19 29.7648C116.646 29.9491 116.075 30.1057 115.476 30.2347C114.887 30.3545 114.265 30.4466 113.611 30.5111C112.966 30.5756 112.284 30.6079 111.565 30.6079C109.732 30.6079 108.124 30.3867 106.742 29.9445C105.36 29.5023 104.204 28.8988 103.273 28.1341C102.343 27.3693 101.642 26.471 101.172 25.4391C100.703 24.4072 100.468 23.297 100.468 22.1085ZM116.154 20.5192C116.006 20.0677 115.776 19.6485 115.463 19.2615C115.158 18.8653 114.776 18.5245 114.315 18.2388C113.855 17.944 113.32 17.7137 112.712 17.5478C112.104 17.382 111.436 17.2991 110.708 17.2991C109.934 17.2991 109.23 17.3866 108.594 17.5616C107.958 17.7367 107.401 17.9716 106.922 18.2665C106.443 18.5613 106.042 18.9022 105.719 19.2892C105.406 19.6761 105.176 20.0861 105.028 20.5192H116.154Z" fill="#101828"/>
<path d="M122.151 22.2052C122.151 21.0075 122.368 19.8926 122.801 18.8607C123.243 17.8196 123.884 16.9213 124.722 16.1658C125.57 15.4011 126.602 14.8022 127.818 14.3692C129.043 13.9362 130.439 13.7196 132.005 13.7196C132.687 13.7196 133.373 13.7611 134.064 13.844C134.755 13.9269 135.419 14.0467 136.055 14.2033C136.699 14.3508 137.303 14.5304 137.865 14.7423C138.427 14.945 138.915 15.1708 139.33 15.4195L137.437 18.5014C136.543 18.0868 135.695 17.7828 134.894 17.5893C134.101 17.3958 133.295 17.2991 132.475 17.2991C131.535 17.2991 130.692 17.4234 129.946 17.6722C129.2 17.9118 128.564 18.2527 128.039 18.6949C127.523 19.1279 127.127 19.6439 126.85 20.2428C126.583 20.8324 126.45 21.4774 126.45 22.1776C126.45 22.8778 126.592 23.5273 126.878 24.1262C127.173 24.7159 127.583 25.2272 128.108 25.6603C128.642 26.0841 129.283 26.4204 130.029 26.6691C130.784 26.9087 131.623 27.0285 132.544 27.0285C133.558 27.0285 134.511 26.8856 135.405 26.6C136.308 26.3144 137.146 25.9321 137.92 25.453L139.814 28.5348C139.325 28.8297 138.796 29.1061 138.224 29.3641C137.653 29.6128 137.04 29.8293 136.386 30.0136C135.741 30.1979 135.059 30.3407 134.341 30.442C133.631 30.5526 132.894 30.6079 132.13 30.6079C130.573 30.6079 129.177 30.396 127.942 29.9721C126.708 29.5483 125.662 28.9633 124.805 28.217C123.948 27.4615 123.289 26.5724 122.829 25.5497C122.377 24.527 122.151 23.4122 122.151 22.2052Z" fill="#101828"/>
<path d="M142.467 7.39001H146.558V20.9338L154.187 14.0099H160.447L151.92 21.6386L160.986 30.3176H154.85L148.783 24.4441L146.558 26.4342V30.3176H142.467V7.39001Z" fill="#101828"/>
</svg>
