<svg width="193" height="40" viewBox="0 0 193 40" fill="none" xmlns="http://www.w3.org/2000/svg">
<path d="M54 32.2436H63.5887C69.0134 32.2436 71.6737 29.4791 71.6737 25.7894C71.6737 22.2038 69.1291 20.0987 66.6076 19.9714V19.7401C68.9209 19.1965 70.7484 17.5772 70.7484 14.6971C70.7484 11.1693 68.2037 8.55525 63.0682 8.55525H54V32.2436ZM58.2912 28.6579V21.718H63.0219C65.6707 21.718 67.3131 23.3373 67.3131 25.454C67.3131 27.3393 66.0177 28.6579 62.9063 28.6579H58.2912ZM58.2912 18.6297V12.0946H62.6287C65.1502 12.0946 66.4572 13.4248 66.4572 15.2523C66.4572 17.3343 64.7685 18.6297 62.5361 18.6297H58.2912Z" fill="white"/>
<path d="M86.5454 24.7716C86.5454 27.4781 84.6138 28.8199 82.7631 28.8199C80.7506 28.8199 79.4088 27.3972 79.4088 25.1417V14.4773H75.2217V25.7894C75.2217 30.0575 77.6507 32.4749 81.1438 32.4749C83.8041 32.4749 85.6779 31.0753 86.4876 29.0859H86.6726V32.2436H90.7325V14.4773H86.5454V24.7716Z" fill="white"/>
<path d="M109.08 19.1733C108.502 16.166 106.096 14.246 101.932 14.246C97.6522 14.246 94.7374 16.3511 94.749 19.636C94.7374 22.2269 96.3336 23.9388 99.7457 24.6443L102.776 25.2805C104.407 25.6391 105.17 26.2983 105.17 27.3046C105.17 28.5191 103.852 29.4329 101.862 29.4329C99.9424 29.4329 98.6932 28.6001 98.3346 27.0039L94.2516 27.3972C94.7721 30.6589 97.5134 32.5906 101.874 32.5906C106.316 32.5906 109.45 30.2888 109.462 26.9229C109.45 24.3899 107.819 22.8399 104.465 22.1112L101.434 21.4635C99.6301 21.0587 98.913 20.4341 98.9245 19.4047C98.913 18.2018 100.243 17.369 101.99 17.369C103.921 17.369 104.939 18.4215 105.263 19.5897L109.08 19.1733Z" fill="white"/>
<path d="M112.914 32.2436H117.101V14.4773H112.914V32.2436ZM115.019 11.9558C116.35 11.9558 117.437 10.938 117.437 9.68877C117.437 8.42801 116.35 7.41016 115.019 7.41016C113.678 7.41016 112.59 8.42801 112.59 9.68877C112.59 10.938 113.678 11.9558 115.019 11.9558Z" fill="white"/>
<path d="M125.594 21.8337C125.594 19.2659 127.144 17.7854 129.353 17.7854C131.516 17.7854 132.812 19.208 132.812 21.5792V32.2436H136.999V20.9315C137.01 16.675 134.581 14.246 130.915 14.246C128.254 14.246 126.427 15.5183 125.617 17.4962H125.409V14.4773H121.407V32.2436H125.594V21.8337Z" fill="white"/>
<path d="M149.121 32.5906C153.261 32.5906 156.107 30.5664 156.847 27.4781L152.937 27.0386C152.371 28.5423 150.983 29.3288 149.178 29.3288C146.472 29.3288 144.679 27.5475 144.644 24.5055H157.02V23.2216C157.02 16.9873 153.273 14.246 148.901 14.246C143.811 14.246 140.492 17.982 140.492 23.4645C140.492 29.0396 143.765 32.5906 149.121 32.5906ZM144.656 21.6833C144.783 19.4162 146.46 17.5078 148.959 17.5078C151.364 17.5078 152.984 19.2659 153.007 21.6833H144.656Z" fill="white"/>
<path d="M174.605 19.1733C174.026 16.166 171.62 14.246 167.456 14.246C163.177 14.246 160.262 16.3511 160.274 19.636C160.262 22.2269 161.858 23.9388 165.27 24.6443L168.301 25.2805C169.932 25.6391 170.695 26.2983 170.695 27.3046C170.695 28.5191 169.376 29.4329 167.387 29.4329C165.467 29.4329 164.218 28.6001 163.859 27.0039L159.776 27.3972C160.297 30.6589 163.038 32.5906 167.399 32.5906C171.84 32.5906 174.975 30.2888 174.986 26.9229C174.975 24.3899 173.344 22.8399 169.989 22.1112L166.959 21.4635C165.155 21.0587 164.438 20.4341 164.449 19.4047C164.438 18.2018 165.768 17.369 167.514 17.369C169.446 17.369 170.464 18.4215 170.788 19.5897L174.605 19.1733Z" fill="white"/>
<path d="M192.481 19.1733C191.902 16.166 189.496 14.246 185.333 14.246C181.053 14.246 178.138 16.3511 178.15 19.636C178.138 22.2269 179.734 23.9388 183.146 24.6443L186.177 25.2805C187.808 25.6391 188.571 26.2983 188.571 27.3046C188.571 28.5191 187.253 29.4329 185.263 29.4329C183.343 29.4329 182.094 28.6001 181.735 27.0039L177.652 27.3972C178.173 30.6589 180.914 32.5906 185.275 32.5906C189.716 32.5906 192.851 30.2888 192.862 26.9229C192.851 24.3899 191.22 22.8399 187.866 22.1112L184.835 21.4635C183.031 21.0587 182.314 20.4341 182.325 19.4047C182.314 18.2018 183.644 17.369 185.39 17.369C187.322 17.369 188.34 18.4215 188.664 19.5897L192.481 19.1733Z" fill="white"/>
<path d="M23.334 13.333H28.334C31.0955 13.333 33.334 15.5716 33.334 18.333V36.6663H23.334V13.333Z" fill="white"/>
<path d="M6.66602 12.2368C6.66602 9.94251 8.2275 7.94259 10.4533 7.38613L20.4534 4.88613C23.609 4.09719 26.666 6.48399 26.666 9.73684V36.6663H6.66602V12.2368Z" fill="#98AAE9"/>
<path fill-rule="evenodd" clip-rule="evenodd" d="M13.334 28.3337C13.334 27.4132 14.0802 26.667 15.0006 26.667H18.334C19.2545 26.667 20.0006 27.4132 20.0006 28.3337C20.0006 29.2542 19.2545 30.0003 18.334 30.0003H15.0006C14.0802 30.0003 13.334 29.2542 13.334 28.3337Z" fill="white"/>
<path fill-rule="evenodd" clip-rule="evenodd" d="M13.334 21.6667C13.334 20.7462 14.0802 20 15.0006 20H18.334C19.2545 20 20.0006 20.7462 20.0006 21.6667C20.0006 22.5872 19.2545 23.3333 18.334 23.3333H15.0006C14.0802 23.3333 13.334 22.5872 13.334 21.6667Z" fill="white"/>
<path fill-rule="evenodd" clip-rule="evenodd" d="M13.334 14.9997C13.334 14.0792 14.0802 13.333 15.0006 13.333H18.334C19.2545 13.333 20.0006 14.0792 20.0006 14.9997C20.0006 15.9201 19.2545 16.6663 18.334 16.6663H15.0006C14.0802 16.6663 13.334 15.9201 13.334 14.9997Z" fill="white"/>
<path fill-rule="evenodd" clip-rule="evenodd" d="M3.33398 34.9997C3.33398 34.0792 4.08018 33.333 5.00065 33.333H35.0007C35.9212 33.333 36.6673 34.0792 36.6673 34.9997C36.6673 35.9202 35.9212 36.6664 35.0007 36.6664H5.00065C4.08018 36.6664 3.33398 35.9202 3.33398 34.9997Z" fill="#98AAE9"/>
</svg>
