<svg width="193" height="44" viewBox="0 0 193 44" fill="none" xmlns="http://www.w3.org/2000/svg">
<path d="M54 38.2943H63.5887C69.0134 38.2943 71.6737 35.5299 71.6737 31.8402C71.6737 28.2546 69.1291 26.1495 66.6076 26.0222V25.7909C68.9209 25.2473 70.7484 23.6279 70.7484 20.7479C70.7484 17.2201 68.2037 14.606 63.0682 14.606H54V38.2943ZM58.2912 34.7087V27.7688H63.0219C65.6707 27.7688 67.3131 29.3881 67.3131 31.5048C67.3131 33.3901 66.0177 34.7087 62.9063 34.7087H58.2912ZM58.2912 24.6805V18.1454H62.6287C65.1502 18.1454 66.4572 19.4755 66.4572 21.3031C66.4572 23.385 64.7685 24.6805 62.5361 24.6805H58.2912Z" fill="#212B36"/>
<path d="M86.5454 30.8223C86.5454 33.5289 84.6138 34.8706 82.7631 34.8706C80.7506 34.8706 79.4088 33.4479 79.4088 31.1925V20.5281H75.2217V31.8402C75.2217 36.1083 77.6507 38.5257 81.1438 38.5257C83.8041 38.5257 85.6779 37.1261 86.4876 35.1367H86.6726V38.2943H90.7325V20.5281H86.5454V30.8223Z" fill="#212B36"/>
<path d="M109.08 25.2241C108.502 22.2168 106.096 20.2968 101.932 20.2968C97.6522 20.2968 94.7374 22.4019 94.749 25.6868C94.7374 28.2777 96.3336 29.9895 99.7457 30.6951L102.776 31.3313C104.407 31.6898 105.17 32.3491 105.17 33.3554C105.17 34.5699 103.852 35.4837 101.862 35.4837C99.9424 35.4837 98.6932 34.6509 98.3346 33.0547L94.2516 33.4479C94.7721 36.7097 97.5134 38.6413 101.874 38.6413C106.316 38.6413 109.45 36.3396 109.462 32.9737C109.45 30.4406 107.819 28.8907 104.465 28.162L101.434 27.5143C99.6301 27.1095 98.913 26.4849 98.9245 25.4555C98.913 24.2525 100.243 23.4197 101.99 23.4197C103.921 23.4197 104.939 24.4723 105.263 25.6405L109.08 25.2241Z" fill="#212B36"/>
<path d="M112.914 38.2943H117.101V20.5281H112.914V38.2943ZM115.019 18.0066C116.35 18.0066 117.437 16.9887 117.437 15.7395C117.437 14.4788 116.35 13.4609 115.019 13.4609C113.678 13.4609 112.59 14.4788 112.59 15.7395C112.59 16.9887 113.678 18.0066 115.019 18.0066Z" fill="#212B36"/>
<path d="M125.594 27.8844C125.594 25.3167 127.144 23.8361 129.353 23.8361C131.516 23.8361 132.812 25.2588 132.812 27.63V38.2943H136.999V26.9822C137.01 22.7257 134.581 20.2968 130.915 20.2968C128.254 20.2968 126.427 21.5691 125.617 23.547H125.409V20.5281H121.407V38.2943H125.594V27.8844Z" fill="#212B36"/>
<path d="M149.121 38.6413C153.261 38.6413 156.107 36.6172 156.847 33.5289L152.937 33.0894C152.371 34.593 150.983 35.3796 149.178 35.3796C146.472 35.3796 144.679 33.5983 144.644 30.5563H157.02V29.2724C157.02 23.038 153.273 20.2968 148.901 20.2968C143.811 20.2968 140.492 24.0328 140.492 29.5153C140.492 35.0904 143.765 38.6413 149.121 38.6413ZM144.656 27.7341C144.783 25.467 146.46 23.5585 148.959 23.5585C151.364 23.5585 152.984 25.3167 153.007 27.7341H144.656Z" fill="#212B36"/>
<path d="M174.605 25.2241C174.026 22.2168 171.62 20.2968 167.456 20.2968C163.177 20.2968 160.262 22.4019 160.274 25.6868C160.262 28.2777 161.858 29.9895 165.27 30.6951L168.301 31.3313C169.932 31.6898 170.695 32.3491 170.695 33.3554C170.695 34.5699 169.376 35.4837 167.387 35.4837C165.467 35.4837 164.218 34.6509 163.859 33.0547L159.776 33.4479C160.297 36.7097 163.038 38.6413 167.399 38.6413C171.84 38.6413 174.975 36.3396 174.986 32.9737C174.975 30.4406 173.344 28.8907 169.989 28.162L166.959 27.5143C165.155 27.1095 164.438 26.4849 164.449 25.4555C164.438 24.2525 165.768 23.4197 167.514 23.4197C169.446 23.4197 170.464 24.4723 170.788 25.6405L174.605 25.2241Z" fill="#212B36"/>
<path d="M192.481 25.2241C191.902 22.2168 189.496 20.2968 185.333 20.2968C181.053 20.2968 178.138 22.4019 178.15 25.6868C178.138 28.2777 179.734 29.9895 183.146 30.6951L186.177 31.3313C187.808 31.6898 188.571 32.3491 188.571 33.3554C188.571 34.5699 187.253 35.4837 185.263 35.4837C183.343 35.4837 182.094 34.6509 181.735 33.0547L177.652 33.4479C178.173 36.7097 180.914 38.6413 185.275 38.6413C189.716 38.6413 192.851 36.3396 192.862 32.9737C192.851 30.4406 191.22 28.8907 187.866 28.162L184.835 27.5143C183.031 27.1095 182.314 26.4849 182.325 25.4555C182.314 24.2525 183.644 23.4197 185.39 23.4197C187.322 23.4197 188.34 24.4723 188.664 25.6405L192.481 25.2241Z" fill="#212B36"/>
<path d="M25.666 14.666H31.166C34.2037 14.666 36.666 17.1285 36.666 20.166V40.3327H25.666V14.666Z" fill="#3056D3"/>
<path d="M7.33398 13.4617C7.33398 10.9379 9.05162 8.73802 11.5 8.12591L22.5001 5.37591C25.9713 4.50808 29.334 7.13356 29.334 10.7117V40.3341H7.33398V13.4617Z" fill="#98AAE9"/>
<path fill-rule="evenodd" clip-rule="evenodd" d="M14.666 31.1673C14.666 30.1548 15.4868 29.334 16.4993 29.334H20.166C21.1786 29.334 21.9993 30.1548 21.9993 31.1673C21.9993 32.1799 21.1786 33.0006 20.166 33.0006H16.4993C15.4868 33.0006 14.666 32.1799 14.666 31.1673Z" fill="#3056D3"/>
<path fill-rule="evenodd" clip-rule="evenodd" d="M14.666 23.8333C14.666 22.8208 15.4868 22 16.4993 22H20.166C21.1786 22 21.9993 22.8208 21.9993 23.8333C21.9993 24.8459 21.1786 25.6667 20.166 25.6667H16.4993C15.4868 25.6667 14.666 24.8459 14.666 23.8333Z" fill="#3056D3"/>
<path fill-rule="evenodd" clip-rule="evenodd" d="M14.666 16.4993C14.666 15.4868 15.4868 14.666 16.4993 14.666H20.166C21.1786 14.666 21.9993 15.4868 21.9993 16.4993C21.9993 17.5119 21.1786 18.3327 20.166 18.3327H16.4993C15.4868 18.3327 14.666 17.5119 14.666 16.4993Z" fill="#3056D3"/>
<path fill-rule="evenodd" clip-rule="evenodd" d="M3.66602 38.4994C3.66602 37.4868 4.48684 36.666 5.49935 36.666H38.4994C39.5119 36.666 40.3327 37.4868 40.3327 38.4994C40.3327 39.5119 39.5119 40.3327 38.4994 40.3327H5.49935C4.48684 40.3327 3.66602 39.5119 3.66602 38.4994Z" fill="#98AAE9"/>
</svg>
