<svg width="65" height="20" viewBox="0 0 65 20" fill="none" xmlns="http://www.w3.org/2000/svg">
<g clip-path="url(#clip0_3189_686)">
<path d="M64.6828 0.00390625V14.2783H0V0.00390625H64.6828Z" fill="#FFCC00"/>
<path d="M11.3752 2.56641L9.30859 5.37402H20.5716C21.1409 5.37402 21.1334 5.59035 20.8551 5.96731C20.5725 6.34998 20.0996 7.01549 19.8117 7.40421C19.6657 7.60148 19.4016 7.96087 20.2768 7.96087H24.8827C24.8827 7.96087 25.6251 6.95069 26.2472 6.10605C27.0939 4.95724 26.3207 2.56652 23.2941 2.56652L11.3752 2.56641Z" fill="#D2002E"/>
<path d="M8.47238 11.7133L12.6232 6.0733H17.7741C18.3434 6.0733 18.336 6.28963 18.0577 6.66659C17.7751 7.04926 17.2945 7.7077 17.0066 8.09641C16.8604 8.29368 16.5964 8.65365 17.4715 8.65365H24.3722C23.7983 9.43987 21.9367 11.7132 18.5941 11.7132L8.47238 11.7133ZM32.2444 8.65296L29.9934 11.7131H24.0558C24.0558 11.7131 26.3055 8.65365 26.3074 8.65365L32.2444 8.65296ZM41.3406 7.96087H26.8175L30.789 2.56641H36.725L34.4486 5.6596H37.0982L39.3755 2.56641H45.3108L41.3406 7.96087ZM40.8309 8.65376L38.5789 11.7133H32.6434C32.6434 11.7133 34.8931 8.65376 34.895 8.65376H40.8309ZM0 9.86019H8.74734L8.26952 10.5102H0V9.86019ZM0 8.65376H9.63602L9.15728 9.30284H0V8.65376ZM0 11.0673H7.85912L7.38358 11.7133H0V11.0673ZM64.6831 10.5102H55.9694L56.4477 9.8603H64.6831V10.5102ZM64.6831 11.7133L55.0836 11.7142L55.5591 11.0673H64.6831V11.7133ZM57.3352 8.65376H64.6831V9.30318L56.8574 9.30375L57.3352 8.65376ZM53.5313 2.56641L49.5605 7.96076H43.2706C43.2706 7.96076 47.2425 2.56641 47.2445 2.56641H53.5313ZM42.7617 8.65376C42.7617 8.65376 42.3278 9.24671 42.1172 9.53171C41.3716 10.5394 42.0307 11.7133 44.4637 11.7133H53.9966L56.2484 8.65376H42.7617Z" fill="#D2002E"/>
<path d="M0 16.5977H64.6831V16.921H0V16.5977ZM0 18.1065H64.6831V18.4299H0V18.1065ZM0 19.6151H64.6831V19.9384H0V19.6151Z" fill="#FFCC00"/>
<path d="M21.7188 19.9391H23.6654L23.9761 19.5179H22.5274L23.3398 18.4172H24.6591L24.9699 17.9959H23.6506L24.371 17.0198H25.8197L26.1305 16.5985H24.184L21.7188 19.9391ZM24.1078 19.9391H24.7052L26.7414 18.5225L26.7214 19.9391H27.3487L27.3534 18.1923L29.6994 16.5985H29.1319L27.2644 17.8812L27.2848 16.5985H26.6874L26.6693 18.2019L24.1078 19.9391ZM30.453 17.0198H30.8762C31.1849 17.0198 31.5298 17.1729 31.219 17.594C30.8941 18.0342 30.3963 18.1826 30.0875 18.1826H29.5946L30.453 17.0198ZM27.8008 19.9391H28.2985L29.2839 18.6038H29.7717C30.399 18.6038 31.1956 18.3406 31.743 17.5987C32.3046 16.8377 31.8887 16.5983 31.1769 16.5983H30.2659L27.8008 19.9391ZM30.6676 19.9391H31.1655L32.2603 18.4554H32.5589C32.8227 18.4554 32.9872 18.4554 32.9014 18.7808L32.5795 19.9391H33.1471L33.4718 18.6085C33.5141 18.4028 33.4926 18.331 33.3804 18.2734L33.3875 18.2638C33.8403 18.1967 34.3657 17.9097 34.666 17.5028C35.2558 16.7037 34.6714 16.5983 33.9842 16.5983H33.1329L30.6676 19.9391ZM33.3199 17.0198H33.7978C34.256 17.0198 34.3535 17.2112 34.1311 17.5125C33.8945 17.8334 33.4673 18.0342 32.9943 18.0342H32.5711L33.3199 17.0198ZM33.6625 19.9391H35.6092L35.9198 19.5179H34.4712L35.2835 18.4172H36.6029L36.9134 17.9959H35.5943L36.3147 17.0198H37.7634L38.0743 16.5985H36.1278L33.6625 19.9391ZM40.4722 16.6607C40.2933 16.5794 40.0476 16.541 39.8186 16.541C39.1913 16.541 38.4704 16.8571 38.0323 17.4505C37.266 18.4891 38.9114 18.2832 38.3604 19.0299C38.0708 19.4221 37.5594 19.5755 37.2758 19.5755C37.0217 19.5755 36.7937 19.4796 36.6739 19.4125L36.2958 19.8577C36.4719 19.9295 36.6615 19.9966 36.9054 19.9966C37.6023 19.9966 38.3833 19.7138 38.9095 19.0008C39.7217 17.9002 38.1186 18.0483 38.592 17.4072C38.8499 17.0579 39.2492 16.9621 39.5279 16.9621C39.7869 16.9621 39.8942 17.0054 40.0775 17.101L40.4722 16.6607ZM42.9615 16.6607C42.7826 16.5794 42.537 16.541 42.3079 16.541C41.6806 16.541 40.9597 16.8571 40.5216 17.4505C39.7553 18.4891 41.4007 18.2832 40.8497 19.0299C40.5602 19.4221 40.0487 19.5755 39.7651 19.5755C39.511 19.5755 39.2829 19.4796 39.1634 19.4125L38.7851 19.8577C38.9612 19.9295 39.1508 19.9966 39.3946 19.9966C40.0916 19.9966 40.8725 19.7138 41.3987 19.0008C42.211 17.9002 40.608 18.0483 41.0813 17.4072C41.3391 17.0579 41.7385 16.9621 42.0172 16.9621C42.2762 16.9621 42.3838 17.0054 42.5668 17.101L42.9615 16.6607Z" fill="#D2002E"/>
</g>
<defs>
<clipPath id="clip0_3189_686">
<rect width="64.6831" height="20" fill="white"/>
</clipPath>
</defs>
</svg>
