<svg width="44" height="44" viewBox="0 0 44 44" fill="none" xmlns="http://www.w3.org/2000/svg">
<circle cx="22" cy="22" r="22" fill="#3056D3"/>
<path d="M27.9277 27.7088L29.3277 27.7088C29.8527 27.7088 30.334 28.1463 30.334 28.7151C30.334 29.2839 29.8965 29.7214 29.3277 29.7214L27.9277 29.7214C27.5339 30.8589 26.4401 31.6902 25.1276 31.6902C23.8151 31.6902 22.765 30.8589 22.3275 29.7214L14.7585 29.7214C14.2335 29.7214 13.7523 29.2839 13.7523 28.7151C13.7523 28.1463 14.1898 27.7088 14.7585 27.7088L22.3275 27.7088C22.7213 26.5713 23.8151 25.74 25.1276 25.74C26.4401 25.74 27.4902 26.5713 27.9277 27.7088ZM26.0901 28.7151C26.0901 28.1901 25.6526 27.7088 25.0838 27.7088C24.5151 27.7088 24.0776 28.1463 24.0776 28.7151C24.0776 29.2839 24.5151 29.7214 25.0838 29.7214C25.6526 29.7214 26.0901 29.2401 26.0901 28.7151Z" fill="white"/>
<path d="M21.1462 21.015L29.3277 21.015C29.8527 21.015 30.334 21.4525 30.334 22.0213C30.334 22.5463 29.8965 23.0275 29.3277 23.0275L21.19 23.0275C20.7962 24.1651 19.7024 24.9963 18.3899 24.9963C17.0774 24.9963 16.0273 24.1651 15.5898 23.0275L14.7585 23.0275C14.2335 23.0275 13.7523 22.59 13.7523 22.0213C13.7523 21.4962 14.1898 21.015 14.7585 21.015L15.5898 21.015C15.9836 19.8774 17.0774 19.0462 18.3899 19.0462C19.7024 19.0462 20.7525 19.8774 21.1462 21.015ZM17.3836 22.0213C17.3836 22.59 17.8211 23.0275 18.3461 23.0275C18.8712 23.0275 19.3524 22.59 19.3524 22.0213C19.3524 21.4962 18.9149 21.015 18.3461 21.015C17.8649 21.015 17.4274 21.4525 17.3836 22.0213Z" fill="white"/>
<path d="M27.1847 14.3646L29.2847 14.3646C29.8098 14.3646 30.291 14.8021 30.291 15.3709C30.291 15.9396 29.8535 16.3771 29.2847 16.3771L27.1847 16.3771C26.7909 17.5147 25.6971 18.3459 24.3846 18.3459C23.0721 18.3459 22.022 17.5147 21.5845 16.3771L14.7156 16.3771C14.1906 16.3771 13.7093 15.9396 13.7093 15.3709C13.7093 14.8021 14.1468 14.3646 14.7156 14.3646L21.6283 14.3646C22.022 13.2271 23.1158 12.3958 24.4284 12.3958C25.7409 12.3958 26.7909 13.1833 27.1847 14.3646ZM23.4221 15.3271C23.4221 15.8521 23.8596 16.3334 24.4284 16.3334C24.9534 16.3334 25.3909 15.8959 25.3909 15.3709C25.3909 14.8458 24.9534 14.4083 24.4284 14.4083C23.8596 14.3208 23.4221 14.8021 23.4221 15.3271Z" fill="white"/>
</svg>
