<svg width="146" height="38" viewBox="0 0 146 38" fill="none" xmlns="http://www.w3.org/2000/svg">
<path d="M64.0042 30.1597C70.9302 30.1597 75.6999 25.2919 75.6999 18.2679C75.6999 11.146 70.8321 6.27822 63.7755 6.27822H55.4121V30.1597H64.0042ZM63.3835 10.1332C68.3166 10.1332 71.2895 13.2042 71.2895 18.2679C71.2895 23.2337 68.3819 26.3047 63.6122 26.3047H59.5938V10.1332H63.3835Z" fill="white"/>
<path d="M83.8096 30.5844C86.3252 30.5844 88.514 29.4409 89.2001 27.7748L89.4941 30.1597H92.9898V20.3588C92.9898 15.8831 90.3109 13.5309 85.9658 13.5309C81.5881 13.5309 78.7132 15.8177 78.7132 19.3134H82.1108C82.1108 17.6146 83.4176 16.6345 85.7698 16.6345C87.7953 16.6345 89.1021 17.5165 89.1021 19.7054V20.0648L84.267 20.4241C80.4446 20.7182 78.2885 22.5803 78.2885 25.5533C78.2885 28.5915 80.3793 30.5844 83.8096 30.5844ZM85.1164 27.5788C83.3196 27.5788 82.3395 26.86 82.3395 25.3899C82.3395 24.0831 83.2869 23.2664 85.7698 23.0377L89.1347 22.7763V23.6258C89.1347 26.1086 87.5666 27.5788 85.1164 27.5788Z" fill="white"/>
<path d="M95.6638 25.2592C95.6638 28.4282 98.212 30.5844 102.23 30.5844C106.216 30.5844 108.993 28.5589 108.993 25.2919C108.993 22.809 107.621 21.5676 104.909 20.9468L102.002 20.2608C100.63 19.9341 99.9109 19.346 99.9109 18.4313C99.9109 17.2225 100.826 16.5038 102.394 16.5038C103.929 16.5038 104.844 17.3859 104.877 18.758H108.666C108.634 15.6217 106.183 13.5309 102.557 13.5309C98.8328 13.5309 96.1539 15.4257 96.1539 18.5946C96.1539 21.1755 97.5586 22.5477 100.466 23.201L103.374 23.8871C104.811 24.2138 105.236 24.8019 105.236 25.6186C105.236 26.7947 104.223 27.5461 102.361 27.5461C100.532 27.5461 99.4861 26.664 99.4535 25.2592H95.6638Z" fill="white"/>
<path d="M116.013 30.1597V21.3389C116.013 18.9213 117.483 17.1572 119.999 17.1572C122.025 17.1572 123.364 18.464 123.364 21.1755V30.1597H127.35V20.2281C127.35 16.0464 125.259 13.5309 121.273 13.5309C118.954 13.5309 117.059 14.5436 116.046 16.1118V5.85352H112.028V30.1597H116.013Z" fill="white"/>
<path d="M129.542 37.641C130.424 37.8697 131.404 38.0004 132.515 38.0004C135.161 38.0004 136.86 36.7589 138.069 33.7533L145.975 14.0209H141.858L137.481 25.7819L133.332 14.0209H129.117L135.618 30.8457L135.161 32.0545C134.475 33.9493 133.495 34.3087 131.927 34.3087H129.542V37.641Z" fill="white"/>
<path d="M18.8478 0C8.45428 0 0 8.45428 0 18.8478C0 29.2415 8.45428 37.6956 18.8478 37.6956C29.2415 37.6956 37.6956 29.2415 37.6956 18.8478C37.6956 8.45428 29.2415 0 18.8478 0Z" fill="#3056D3"/>
<path d="M19.2918 25.5841C15.828 25.5841 13.0092 22.7655 13.0092 19.3015C13.0092 18.334 13.2458 17.4293 13.6374 16.6105L6.72656 6.73633L16.5986 13.6493C17.4377 13.2399 18.3581 13.0245 19.2918 13.0189C22.7557 13.0189 25.5744 15.8377 25.5744 19.3015C25.5744 22.7655 22.7557 25.5841 19.2918 25.5841Z" fill="#97ACEF"/>
</svg>
