<svg width="172" height="37" viewBox="0 0 172 37" fill="none" xmlns="http://www.w3.org/2000/svg">
<g clip-path="url(#clip0_48_137)">
<path fill-rule="evenodd" clip-rule="evenodd" d="M18 0.5C27.9411 0.5 36 8.55887 36 18.5C36 28.4411 27.9411 36.5 18 36.5C8.05887 36.5 0 28.4411 0 18.5C0 8.55887 8.05887 0.5 18 0.5ZM25.91 10.2231C23.8277 8.30311 21.1369 7.25 18.2865 7.25C12.0814 7.25 7.03125 12.2967 7.03125 18.5C7.03125 24.5475 11.8294 29.4964 17.8208 29.7419C17.9778 29.7483 18.1072 29.6213 18.1072 29.4643V23.2316C18.1072 23.0806 17.9877 22.9575 17.8375 22.9424C15.5847 22.7161 13.8199 20.8097 13.8199 18.5C13.8199 16.0391 15.8238 14.0352 18.2883 14.0369C19.3294 14.0369 20.3171 14.3908 21.1131 15.0425C21.2299 15.1382 21.4014 15.1356 21.5081 15.0288L25.9156 10.6213C26.0266 10.5103 26.0254 10.3295 25.91 10.2231ZM24.9749 19.3929H22.3206C22.1652 19.3929 22.0393 19.5189 22.0393 19.6742V22.3267C22.0393 22.4821 22.1652 22.608 22.3206 22.608H24.9749C25.1302 22.608 25.2561 22.4821 25.2561 22.3267V19.6742C25.2561 19.5189 25.1302 19.3929 24.9749 19.3929ZM25.8922 19.3929H28.5465C28.7018 19.3929 28.8278 19.5189 28.8278 19.6742V22.3267C28.8278 22.4821 28.7018 22.608 28.5465 22.608H25.8922C25.7369 22.608 25.611 22.4821 25.611 22.3267V19.6742C25.611 19.5189 25.7369 19.3929 25.8922 19.3929ZM24.9749 22.965H22.3206C22.1652 22.965 22.0393 23.0909 22.0393 23.2462V25.8988C22.0393 26.0541 22.1652 26.18 22.3206 26.18H24.9749C25.1302 26.18 25.2561 26.0541 25.2561 25.8988V23.2462C25.2561 23.0909 25.1302 22.965 24.9749 22.965ZM18.7474 22.965H21.4017C21.5571 22.965 21.683 23.0909 21.683 23.2462V25.8988C21.683 26.0541 21.5571 26.18 21.4017 26.18H18.7474C18.5921 26.18 18.4662 26.0541 18.4662 25.8988V23.2462C18.4662 23.0909 18.5921 22.965 18.7474 22.965ZM28.5465 22.965H25.8922C25.7369 22.965 25.611 23.0909 25.611 23.2462V25.8988C25.611 26.0541 25.7369 26.18 25.8922 26.18H28.5465C28.7018 26.18 28.8278 26.0541 28.8278 25.8988V23.2462C28.8278 23.0909 28.7018 22.965 28.5465 22.965ZM22.3206 26.5348H24.9749C25.1302 26.5348 25.2561 26.6607 25.2561 26.816V29.4686C25.2561 29.6239 25.1302 29.7498 24.9749 29.7498H22.3206C22.1652 29.7498 22.0393 29.6239 22.0393 29.4686V26.816C22.0393 26.6607 22.1652 26.5348 22.3206 26.5348ZM21.4017 26.5348H18.7474C18.5921 26.5348 18.4662 26.6607 18.4662 26.816V29.4686C18.4662 29.6239 18.5921 29.7498 18.7474 29.7498H21.4017C21.5571 29.7498 21.683 29.6239 21.683 29.4686V26.816C21.683 26.6607 21.5571 26.5348 21.4017 26.5348ZM25.8922 26.5348H28.5465C28.7018 26.5348 28.8278 26.6607 28.8278 26.816V29.4686C28.8278 29.6239 28.7018 29.7498 28.5465 29.7498H25.8922C25.7369 29.7498 25.611 29.6239 25.611 29.4686V26.816C25.611 26.6607 25.7369 26.5348 25.8922 26.5348Z" fill="white"/>
<path d="M56.9419 10.625H59.7769V26.879C59.7769 27.9185 59.535 28.8845 59.0512 29.777C58.5787 30.68 57.9375 31.4622 57.1275 32.1238C56.3175 32.7957 55.395 33.3155 54.36 33.683C53.325 34.061 52.245 34.25 51.12 34.25C49.95 34.25 48.8194 34.0033 47.7281 33.5098C46.6369 33.0268 45.6806 32.3757 44.8594 31.5567C44.0494 30.7482 43.4644 29.84 43.1044 28.832L45.7031 27.7295C45.9169 28.454 46.2994 29.105 46.8506 29.6825C47.4131 30.2705 48.0656 30.7325 48.8081 31.0685C49.5619 31.415 50.3325 31.5882 51.12 31.5882C51.8625 31.5882 52.5769 31.4675 53.2631 31.226C53.9606 30.9845 54.585 30.6485 55.1362 30.218C55.6987 29.798 56.1375 29.2993 56.4525 28.7218C56.7787 28.1548 56.9419 27.5405 56.9419 26.879V23.7447C56.3681 24.6477 55.6087 25.3827 54.6637 25.9497C53.73 26.5063 52.6387 26.7845 51.39 26.7845C50.1975 26.7845 49.0781 26.5693 48.0319 26.1388C46.9856 25.7083 46.0687 25.115 45.2812 24.359C44.4937 23.5925 43.875 22.7105 43.425 21.713C42.975 20.7155 42.75 19.6445 42.75 18.5C42.75 17.3555 42.975 16.2845 43.425 15.287C43.875 14.279 44.4937 13.397 45.2812 12.641C46.0687 11.8745 46.9856 11.276 48.0319 10.8455C49.0781 10.415 50.1975 10.1997 51.39 10.1997C52.6387 10.1997 53.73 10.478 54.6637 11.0345C55.6087 11.591 56.3681 12.326 56.9419 13.2395V10.625ZM51.4069 24.2173C52.4981 24.2173 53.4431 23.9548 54.2419 23.4298C55.0519 22.9048 55.6762 22.2065 56.115 21.335C56.5537 20.4635 56.7731 19.5185 56.7731 18.5C56.7731 17.45 56.5481 16.4945 56.0981 15.6335C55.6594 14.762 55.035 14.069 54.225 13.5545C53.4262 13.0295 52.4869 12.767 51.4069 12.767C50.3494 12.767 49.3819 13.0243 48.5044 13.5388C47.6269 14.0533 46.9294 14.7463 46.4119 15.6178C45.9056 16.4788 45.6525 17.4395 45.6525 18.5C45.6525 19.5605 45.9112 20.5265 46.4288 21.398C46.9575 22.259 47.655 22.9468 48.5212 23.4613C49.3987 23.9653 50.3606 24.2173 51.4069 24.2173Z" fill="white"/>
<path d="M62.4845 26.3751V10.6251H65.3195V12.5939C65.9158 11.8589 66.6695 11.2761 67.5808 10.8456C68.492 10.4046 69.482 10.1841 70.5508 10.1841C71.2033 10.1841 71.8333 10.2628 72.4408 10.4203L71.2933 13.0664C70.832 12.9299 70.382 12.8616 69.9433 12.8616C69.0995 12.8616 68.3233 13.0559 67.6145 13.4444C66.917 13.8224 66.3601 14.3369 65.9439 14.9879C65.5276 15.6389 65.3195 16.3634 65.3195 17.1614V26.3751H62.4845Z" fill="white"/>
<path d="M85.8751 10.6251H88.7101V26.3751H85.8751L85.757 23.7134C85.2282 24.6269 84.497 25.3671 83.5632 25.9341C82.6407 26.5011 81.5382 26.7846 80.2557 26.7846C79.0182 26.7846 77.8595 26.5694 76.7795 26.1389C75.6995 25.6979 74.7432 25.0941 73.9107 24.3276C73.0895 23.5506 72.4482 22.6581 71.987 21.6501C71.5257 20.6421 71.2951 19.5554 71.2951 18.3899C71.2951 17.2664 71.5201 16.2059 71.9701 15.2084C72.4201 14.2109 73.0445 13.3394 73.8432 12.5939C74.6532 11.8379 75.587 11.2499 76.6445 10.8299C77.702 10.3993 78.8382 10.1841 80.0532 10.1841C81.3807 10.1841 82.5451 10.4781 83.5464 11.0661C84.5476 11.6436 85.3576 12.3944 85.9764 13.3184L85.8751 10.6251ZM80.2051 24.2174C81.3189 24.2174 82.2807 23.9654 83.0907 23.4614C83.912 22.9469 84.542 22.2539 84.9807 21.3824C85.4307 20.5109 85.6557 19.5501 85.6557 18.5001C85.6557 17.4291 85.4307 16.4631 84.9807 15.6021C84.5307 14.7306 83.8951 14.0429 83.0739 13.5389C82.2639 13.0244 81.3076 12.7671 80.2051 12.7671C79.0914 12.7671 78.0789 13.0244 77.1676 13.5389C76.2564 14.0534 75.5307 14.7464 74.9907 15.6179C74.462 16.4789 74.1976 17.4396 74.1976 18.5001C74.1976 19.5606 74.4732 20.5266 75.0245 21.3981C75.5757 22.2591 76.307 22.9469 77.2182 23.4614C78.1295 23.9654 79.1251 24.2174 80.2051 24.2174Z" fill="white"/>
<path d="M101.765 10.625H104.769L95.5382 34.25H92.5344L95.5888 26.375L89.5307 10.625H92.6357L97.0063 22.7367L101.765 10.625Z" fill="white"/>
<path d="M119.108 10.625H121.943V26.879C121.943 27.9185 121.701 28.8845 121.217 29.777C120.745 30.68 120.103 31.4622 119.293 32.1238C118.483 32.7957 117.561 33.3155 116.526 33.683C115.491 34.061 114.411 34.25 113.286 34.25C112.116 34.25 110.985 34.0033 109.894 33.5098C108.803 33.0268 107.847 32.3757 107.025 31.5567C106.215 30.7482 105.63 29.84 105.27 28.832L107.869 27.7295C108.083 28.454 108.465 29.105 109.017 29.6825C109.579 30.2705 110.232 30.7325 110.974 31.0685C111.728 31.415 112.498 31.5882 113.286 31.5882C114.028 31.5882 114.743 31.4675 115.429 31.226C116.127 30.9845 116.751 30.6485 117.302 30.218C117.865 29.798 118.303 29.2993 118.618 28.7218C118.945 28.1548 119.108 27.5405 119.108 26.879V23.7447C118.534 24.6477 117.775 25.3827 116.83 25.9497C115.896 26.5063 114.805 26.7845 113.556 26.7845C112.363 26.7845 111.244 26.5693 110.198 26.1388C109.152 25.7083 108.235 25.115 107.447 24.359C106.66 23.5925 106.041 22.7105 105.591 21.713C105.141 20.7155 104.916 19.6445 104.916 18.5C104.916 17.3555 105.141 16.2845 105.591 15.287C106.041 14.279 106.66 13.397 107.447 12.641C108.235 11.8745 109.152 11.276 110.198 10.8455C111.244 10.415 112.363 10.1997 113.556 10.1997C114.805 10.1997 115.896 10.478 116.83 11.0345C117.775 11.591 118.534 12.326 119.108 13.2395V10.625ZM113.573 24.2173C114.664 24.2173 115.609 23.9548 116.408 23.4298C117.218 22.9048 117.842 22.2065 118.281 21.335C118.72 20.4635 118.939 19.5185 118.939 18.5C118.939 17.45 118.714 16.4945 118.264 15.6335C117.825 14.762 117.201 14.069 116.391 13.5545C115.592 13.0295 114.653 12.767 113.573 12.767C112.515 12.767 111.548 13.0243 110.67 13.5388C109.793 14.0533 109.095 14.7463 108.578 15.6178C108.072 16.4788 107.818 17.4395 107.818 18.5C107.818 19.5605 108.077 20.5265 108.595 21.398C109.123 22.259 109.821 22.9468 110.687 23.4613C111.565 23.9653 112.527 24.2173 113.573 24.2173Z" fill="white"/>
<path d="M124.65 26.3751V10.6251H127.485V12.5939C128.082 11.8589 128.835 11.2761 129.747 10.8456C130.658 10.4046 131.648 10.1841 132.717 10.1841C133.369 10.1841 133.999 10.2628 134.607 10.4203L133.459 13.0664C132.998 12.9299 132.548 12.8616 132.109 12.8616C131.265 12.8616 130.489 13.0559 129.78 13.4444C129.083 13.8224 128.526 14.3369 128.11 14.9879C127.694 15.6389 127.485 16.3634 127.485 17.1614V26.3751H124.65Z" fill="white"/>
<path d="M135.33 10.6249H138.165V26.3749H135.33V10.6249ZM136.782 8.05766C136.332 8.05766 135.955 7.92116 135.651 7.64816C135.347 7.37516 135.195 7.03391 135.195 6.62441C135.195 6.21491 135.347 5.87366 135.651 5.60066C135.955 5.32766 136.326 5.19116 136.765 5.19116C137.204 5.19116 137.575 5.32766 137.879 5.60066C138.182 5.87366 138.334 6.21491 138.334 6.62441C138.334 7.03391 138.182 7.37516 137.879 7.64816C137.586 7.92116 137.22 8.05766 136.782 8.05766Z" fill="white"/>
<path d="M154.223 2.75H157.058V26.375H154.223V23.6975C153.649 24.6215 152.878 25.367 151.911 25.934C150.943 26.501 149.807 26.7845 148.502 26.7845C147.276 26.7845 146.128 26.5693 145.059 26.1388C143.991 25.7083 143.046 25.115 142.224 24.359C141.414 23.5925 140.779 22.7105 140.318 21.713C139.856 20.7155 139.626 19.6445 139.626 18.5C139.626 17.3555 139.856 16.2845 140.318 15.287C140.779 14.279 141.414 13.397 142.224 12.641C143.046 11.8745 143.991 11.276 145.059 10.8455C146.128 10.415 147.276 10.1997 148.502 10.1997C149.807 10.1997 150.943 10.4832 151.911 11.0503C152.878 11.6173 153.649 12.3628 154.223 13.2868V2.75ZM148.536 24.2173C149.649 24.2173 150.611 23.9653 151.421 23.4613C152.243 22.9468 152.873 22.2538 153.311 21.3823C153.761 20.5108 153.986 19.55 153.986 18.5C153.986 17.429 153.761 16.463 153.311 15.602C152.861 14.7305 152.226 14.0428 151.404 13.5388C150.594 13.0243 149.638 12.767 148.536 12.767C147.422 12.767 146.409 13.0243 145.498 13.5388C144.598 14.0533 143.878 14.7463 143.338 15.6178C142.798 16.4788 142.528 17.4395 142.528 18.5C142.528 19.5605 142.804 20.5265 143.355 21.398C143.906 22.259 144.638 22.9468 145.549 23.4613C146.46 23.9653 147.456 24.2173 148.536 24.2173Z" fill="white"/>
<path d="M164.903 26.6743C163.991 26.6428 163.103 26.4854 162.236 26.2018C161.381 25.9079 160.628 25.5141 159.975 25.0206C159.334 24.5166 158.867 23.9391 158.574 23.2881L161.004 22.3116C161.173 22.6686 161.477 23.0046 161.916 23.3196C162.354 23.6346 162.861 23.8866 163.434 24.0756C164.008 24.2646 164.588 24.3591 165.173 24.3591C165.791 24.3591 166.371 24.2699 166.911 24.0914C167.451 23.9129 167.889 23.6504 168.227 23.3039C168.576 22.9469 168.75 22.5216 168.75 22.0281C168.75 21.5031 168.559 21.0936 168.176 20.7996C167.805 20.4951 167.333 20.2588 166.759 20.0908C166.196 19.9124 165.623 19.7443 165.038 19.5869C163.879 19.3138 162.844 18.9884 161.933 18.6104C161.021 18.2219 160.301 17.7336 159.773 17.1456C159.255 16.5471 158.996 15.7859 158.996 14.8619C158.996 13.8854 159.283 13.0401 159.857 12.3261C160.442 11.6121 161.207 11.0609 162.152 10.6724C163.097 10.2838 164.109 10.0896 165.189 10.0896C166.551 10.0896 167.794 10.3626 168.919 10.9086C170.044 11.4546 170.882 12.1949 171.433 13.1294L169.155 14.3736C168.964 13.9956 168.671 13.6649 168.278 13.3814C167.884 13.0874 167.434 12.8564 166.928 12.6884C166.421 12.5204 165.904 12.4311 165.375 12.4206C164.723 12.3996 164.109 12.4784 163.536 12.6569C162.973 12.8354 162.518 13.1084 162.169 13.4758C161.831 13.8329 161.663 14.2791 161.663 14.8146C161.663 15.3396 161.843 15.7386 162.203 16.0116C162.574 16.2846 163.052 16.5051 163.637 16.6731C164.233 16.8306 164.88 17.0144 165.578 17.2244C166.601 17.5289 167.558 17.8806 168.446 18.2796C169.335 18.6786 170.049 19.1774 170.589 19.7759C171.141 20.3744 171.411 21.1146 171.399 21.9966C171.399 22.9626 171.09 23.8079 170.471 24.5324C169.853 25.2464 169.048 25.7923 168.058 26.1703C167.079 26.5484 166.028 26.7163 164.903 26.6743Z" fill="white"/>
</g>
<defs>
<clipPath id="clip0_48_137">
<rect width="172" height="36" fill="white" transform="translate(0 0.5)"/>
</clipPath>
</defs>
</svg>
