<svg width="182" height="38" viewBox="0 0 182 38" fill="none" xmlns="http://www.w3.org/2000/svg">
<path d="M38 19C38 8.50659 29.4934 0 19 0C8.50659 0 0 8.50659 0 19C0 29.4934 8.50659 38 19 38C29.4934 38 38 29.4934 38 19Z" fill="url(#paint0_linear_858_3583)"/>
<path d="M38 19C38 8.50659 29.4934 0 19 0C8.50659 0 0 8.50659 0 19C0 29.4934 8.50659 38 19 38C29.4934 38 38 29.4934 38 19Z" fill="url(#paint1_linear_858_3583)" fill-opacity="0.56"/>
<path d="M19.3024 7.125C22.3112 7.125 25.1515 8.23662 27.3495 10.2632C27.4713 10.3756 27.4725 10.5664 27.3554 10.6836L22.703 15.336C22.5904 15.4487 22.4093 15.4514 22.2861 15.3504C21.4458 14.6625 20.4033 14.2889 19.3043 14.2889C16.7029 14.2872 14.5877 16.4024 14.5877 19H7.42188C7.42188 12.4521 12.7526 7.125 19.3024 7.125Z" fill="white"/>
<path d="M14.5877 19C14.5877 21.438 16.4505 23.4503 18.8285 23.6892C18.987 23.7051 19.1132 23.8351 19.1132 23.9945V30.5734C19.1132 30.7392 18.9766 30.8732 18.8109 30.8664C12.4866 30.6073 7.42188 25.3835 7.42188 19H14.5877Z" fill="white"/>
<path opacity="0.56" d="M26.3624 19.9425H23.5606C23.3966 19.9425 23.2637 20.0755 23.2637 20.2394V23.0393C23.2637 23.2033 23.3966 23.3362 23.5606 23.3362H26.3624C26.5263 23.3362 26.6592 23.2033 26.6592 23.0393V20.2394C26.6592 20.0755 26.5263 19.9425 26.3624 19.9425Z" fill="white"/>
<path opacity="0.4" d="M30.1337 19.9425H27.332C27.1681 19.9425 27.0352 20.0755 27.0352 20.2394V23.0393C27.0352 23.2033 27.1681 23.3362 27.332 23.3362H30.1337C30.2977 23.3362 30.4307 23.2033 30.4307 23.0393V20.2394C30.4307 20.0755 30.2977 19.9425 30.1337 19.9425Z" fill="white"/>
<path opacity="0.72" d="M26.3624 23.713H23.5606C23.3966 23.713 23.2637 23.8459 23.2637 24.0098V26.8098C23.2637 26.9737 23.3966 27.1066 23.5606 27.1066H26.3624C26.5263 27.1066 26.6592 26.9737 26.6592 26.8098V24.0098C26.6592 23.8459 26.5263 23.713 26.3624 23.713Z" fill="white"/>
<path opacity="0.88" d="M22.5908 23.713H19.789C19.6251 23.713 19.4922 23.8459 19.4922 24.0098V26.8098C19.4922 26.9737 19.6251 27.1066 19.789 27.1066H22.5908C22.7548 27.1066 22.8877 26.9737 22.8877 26.8098V24.0098C22.8877 23.8459 22.7548 23.713 22.5908 23.713Z" fill="white"/>
<path opacity="0.56" d="M30.1337 23.7131H27.332C27.1681 23.7131 27.0352 23.846 27.0352 24.01V26.8099C27.0352 26.9739 27.1681 27.1067 27.332 27.1067H30.1337C30.2977 27.1067 30.4307 26.9739 30.4307 26.8099V24.01C30.4307 23.846 30.2977 23.7131 30.1337 23.7131Z" fill="white"/>
<path opacity="0.88" d="M26.3624 27.4812H23.5606C23.3966 27.4812 23.2637 27.6141 23.2637 27.778V30.578C23.2637 30.7419 23.3966 30.8748 23.5606 30.8748H26.3624C26.5263 30.8748 26.6592 30.7419 26.6592 30.578V27.778C26.6592 27.6141 26.5263 27.4812 26.3624 27.4812Z" fill="white"/>
<path opacity="0.96" d="M22.5908 27.4812H19.789C19.6251 27.4812 19.4922 27.6141 19.4922 27.778V30.578C19.4922 30.7419 19.6251 30.8748 19.789 30.8748H22.5908C22.7548 30.8748 22.8877 30.7419 22.8877 30.578V27.778C22.8877 27.6141 22.7548 27.4812 22.5908 27.4812Z" fill="white"/>
<path opacity="0.72" d="M30.1337 27.4812H27.332C27.1681 27.4812 27.0352 27.6141 27.0352 27.778V30.578C27.0352 30.7419 27.1681 30.8748 27.332 30.8748H30.1337C30.2977 30.8748 30.4307 30.7419 30.4307 30.578V27.778C30.4307 27.6141 30.2977 27.4812 30.1337 27.4812Z" fill="white"/>
<path d="M60.1053 10.6875H63.0979V27.8445C63.0979 28.9418 62.8425 29.9614 62.3318 30.9035C61.8331 31.8567 61.1563 32.6823 60.3013 33.3807C59.4463 34.0899 58.4725 34.6386 57.38 35.0265C56.2875 35.4255 55.1475 35.625 53.96 35.625C52.725 35.625 51.5316 35.3646 50.3797 34.8437C49.2278 34.3339 48.2184 33.6466 47.3516 32.7821C46.4966 31.9287 45.8791 30.97 45.4991 29.906L48.2422 28.7423C48.4678 29.507 48.8716 30.1942 49.4534 30.8038C50.0472 31.4244 50.7359 31.9121 51.5197 32.2668C52.3153 32.6325 53.1288 32.8153 53.96 32.8153C54.7438 32.8153 55.4978 32.6879 56.2222 32.433C56.9584 32.1781 57.6175 31.8234 58.1993 31.369C58.7931 30.9257 59.2563 30.3993 59.5888 29.7897C59.9331 29.1912 60.1053 28.5428 60.1053 27.8445V24.5361C59.4997 25.4893 58.6981 26.2651 57.7006 26.8636C56.715 27.4511 55.5631 27.7448 54.245 27.7448C52.9863 27.7448 51.8047 27.5176 50.7003 27.0632C49.5959 26.6088 48.6281 25.9825 47.7968 25.1845C46.9656 24.3754 46.3125 23.4444 45.8375 22.3915C45.3625 21.3386 45.125 20.2081 45.125 19C45.125 17.7919 45.3625 16.6614 45.8375 15.6085C46.3125 14.5445 46.9656 13.6135 47.7968 12.8155C48.6281 12.0064 49.5959 11.3747 50.7003 10.9203C51.8047 10.4659 52.9863 10.2386 54.245 10.2386C55.5631 10.2386 56.715 10.5324 57.7006 11.1198C58.6981 11.7072 59.4997 12.483 60.1053 13.4473V10.6875ZM54.2628 25.035C55.4147 25.035 56.4122 24.7579 57.2553 24.2037C58.1103 23.6495 58.7693 22.9124 59.2325 21.9925C59.6956 21.0726 59.9272 20.0751 59.9272 19C59.9272 17.8917 59.6897 16.8831 59.2147 15.9743C58.7516 15.0544 58.0925 14.3229 57.2375 13.7798C56.3943 13.2256 55.4028 12.9485 54.2628 12.9485C53.1466 12.9485 52.1253 13.2201 51.1991 13.7632C50.2728 14.3063 49.5366 15.0378 48.9903 15.9577C48.4559 16.8665 48.1888 17.8806 48.1888 19C48.1888 20.1194 48.4618 21.1391 49.0082 22.059C49.5663 22.9679 50.3025 23.6939 51.2168 24.237C52.1431 24.769 53.1584 25.035 54.2628 25.035Z" fill="#1E1983"/>
<path d="M65.957 27.3125V10.6875H68.9495V12.7657C69.579 11.9899 70.3745 11.3747 71.3365 10.9203C72.2983 10.4548 73.3433 10.222 74.4715 10.222C75.1602 10.222 75.8252 10.3052 76.4665 10.4714L75.2552 13.2645C74.7683 13.1204 74.2933 13.0483 73.8302 13.0483C72.9395 13.0483 72.1202 13.2534 71.372 13.6635C70.6358 14.0625 70.0479 14.6056 69.6086 15.2927C69.1692 15.9799 68.9495 16.7446 68.9495 17.587V27.3125H65.957Z" fill="#1E1983"/>
<path d="M90.6459 10.6875H93.6384V27.3125H90.6459L90.5212 24.503C89.963 25.4672 89.1912 26.2485 88.2055 26.847C87.2318 27.4455 86.068 27.7448 84.7143 27.7448C83.408 27.7448 82.185 27.5176 81.045 27.0632C79.905 26.5977 78.8955 25.9604 78.0168 25.1513C77.15 24.3311 76.473 23.389 75.9862 22.325C75.4993 21.261 75.2559 20.114 75.2559 18.8837C75.2559 17.6978 75.4934 16.5784 75.9684 15.5255C76.4434 14.4726 77.1025 13.5526 77.9455 12.7657C78.8005 11.9677 79.7862 11.3471 80.9025 10.9037C82.0187 10.4493 83.218 10.222 84.5005 10.222C85.9018 10.222 87.1309 10.5324 88.1878 11.153C89.2446 11.7626 90.0996 12.5551 90.7528 13.5305L90.6459 10.6875ZM84.6609 25.035C85.8365 25.035 86.8518 24.769 87.7068 24.237C88.5737 23.6939 89.2387 22.9624 89.7018 22.0425C90.1768 21.1226 90.4143 20.1084 90.4143 19C90.4143 17.8695 90.1768 16.8499 89.7018 15.941C89.2268 15.0211 88.5559 14.2952 87.689 13.7632C86.834 13.2201 85.8246 12.9485 84.6609 12.9485C83.4853 12.9485 82.4165 13.2201 81.4546 13.7632C80.4928 14.3063 79.7268 15.0378 79.1568 15.9577C78.5987 16.8666 78.3196 17.8806 78.3196 19C78.3196 20.1195 78.6105 21.1391 79.1925 22.059C79.7743 22.9679 80.5462 23.6939 81.508 24.237C82.47 24.769 83.5209 25.035 84.6609 25.035Z" fill="#1E1983"/>
<path d="M107.418 10.6875H110.589L100.845 35.625H97.6745L100.899 27.3125L94.5039 10.6875H97.7814L102.395 23.4721L107.418 10.6875Z" fill="#1E1983"/>
<path d="M125.727 10.6875H128.719V27.8445C128.719 28.9418 128.464 29.9614 127.953 30.9035C127.454 31.8567 126.777 32.6823 125.922 33.3807C125.067 34.0899 124.094 34.6386 123.001 35.0265C121.909 35.4255 120.769 35.625 119.581 35.625C118.346 35.625 117.152 35.3646 116.001 34.8437C114.849 34.3339 113.84 33.6466 112.972 32.7821C112.117 31.9287 111.5 30.97 111.12 29.906L113.863 28.7423C114.089 29.507 114.492 30.1942 115.075 30.8038C115.668 31.4244 116.357 31.9121 117.141 32.2668C117.937 32.6325 118.749 32.8153 119.581 32.8153C120.364 32.8153 121.119 32.6879 121.843 32.433C122.58 32.1781 123.239 31.8234 123.82 31.369C124.414 30.9257 124.877 30.3993 125.209 29.7897C125.554 29.1912 125.727 28.5428 125.727 27.8445V24.5361C125.121 25.4893 124.319 26.2651 123.322 26.8636C122.336 27.4511 121.184 27.7448 119.866 27.7448C118.607 27.7448 117.426 27.5176 116.322 27.0632C115.217 26.6088 114.249 25.9825 113.418 25.1845C112.587 24.3754 111.934 23.4444 111.459 22.3915C110.984 21.3386 110.746 20.2081 110.746 19C110.746 17.7919 110.984 16.6614 111.459 15.6085C111.934 14.5445 112.587 13.6135 113.418 12.8155C114.249 12.0064 115.217 11.3747 116.322 10.9203C117.426 10.4659 118.607 10.2386 119.866 10.2386C121.184 10.2386 122.336 10.5324 123.322 11.1198C124.319 11.7072 125.121 12.483 125.727 13.4473V10.6875ZM119.884 25.035C121.036 25.035 122.033 24.7579 122.877 24.2037C123.732 23.6495 124.39 22.9124 124.854 21.9925C125.317 21.0726 125.548 20.0751 125.548 19C125.548 17.8917 125.311 16.8831 124.836 15.9743C124.372 15.0544 123.714 14.3229 122.859 13.7798C122.015 13.2256 121.024 12.9485 119.884 12.9485C118.767 12.9485 117.747 13.2201 116.82 13.7632C115.894 14.3063 115.157 15.0378 114.612 15.9577C114.077 16.8665 113.809 17.8806 113.809 19C113.809 20.1194 114.083 21.1391 114.629 22.059C115.187 22.9679 115.924 23.6939 116.838 24.237C117.764 24.769 118.78 25.035 119.884 25.035Z" fill="#1E1983"/>
<path d="M131.574 27.3125V10.6875H134.567V12.7657C135.197 11.9899 135.992 11.3747 136.954 10.9203C137.916 10.4548 138.961 10.222 140.089 10.222C140.778 10.222 141.443 10.3052 142.084 10.4714L140.873 13.2645C140.386 13.1204 139.911 13.0483 139.448 13.0483C138.557 13.0483 137.738 13.2534 136.989 13.6635C136.253 14.0625 135.666 14.6056 135.226 15.2927C134.787 15.9799 134.567 16.7446 134.567 17.587V27.3125H131.574Z" fill="#1E1983"/>
<path d="M142.85 10.6875H145.842V27.3125H142.85V10.6875ZM144.382 7.97765C143.907 7.97765 143.509 7.83357 143.188 7.5454C142.867 7.25724 142.707 6.89703 142.707 6.46478C142.707 6.03253 142.867 5.67232 143.188 5.38415C143.509 5.09599 143.901 4.9519 144.364 4.9519C144.828 4.9519 145.219 5.09599 145.54 5.38415C145.86 5.67232 146.02 6.03253 146.02 6.46478C146.02 6.89703 145.86 7.25724 145.54 7.5454C145.231 7.83357 144.845 7.97765 144.382 7.97765Z" fill="#1E1983"/>
<path d="M162.791 2.375H165.783V27.3125H162.791V24.4863C162.185 25.4616 161.371 26.2485 160.35 26.847C159.329 27.4455 158.129 27.7448 156.752 27.7448C155.458 27.7448 154.246 27.5176 153.118 27.0632C151.99 26.6088 150.993 25.9825 150.125 25.1845C149.27 24.3754 148.6 23.4444 148.113 22.3915C147.626 21.3386 147.383 20.2081 147.383 19C147.383 17.7919 147.626 16.6614 148.113 15.6085C148.6 14.5445 149.27 13.6135 150.125 12.8155C150.993 12.0064 151.99 11.3747 153.118 10.9203C154.246 10.4658 155.458 10.2386 156.752 10.2386C158.129 10.2386 159.329 10.5379 160.35 11.1364C161.371 11.7349 162.185 12.5218 162.791 13.4972V2.375ZM156.788 25.0349C157.963 25.0349 158.978 24.7689 159.833 24.2369C160.701 23.6938 161.366 22.9623 161.828 22.0424C162.303 21.1225 162.541 20.1083 162.541 19C162.541 17.8695 162.303 16.8498 161.828 15.941C161.353 15.0211 160.683 14.2952 159.815 13.7632C158.96 13.2201 157.951 12.9485 156.788 12.9485C155.612 12.9485 154.543 13.2201 153.581 13.7632C152.631 14.3063 151.871 15.0378 151.301 15.9577C150.731 16.8665 150.446 17.8806 150.446 19C150.446 20.1194 150.737 21.1391 151.319 22.059C151.901 22.9678 152.673 23.6938 153.635 24.2369C154.596 24.7689 155.648 25.0349 156.788 25.0349Z" fill="#1E1983"/>
<path d="M174.063 27.6284C173.101 27.5951 172.163 27.429 171.248 27.1296C170.346 26.8194 169.551 26.4037 168.862 25.8828C168.185 25.3508 167.692 24.7412 167.383 24.0541L169.948 23.0233C170.126 23.4001 170.447 23.7548 170.91 24.0873C171.373 24.4198 171.908 24.6858 172.513 24.8853C173.119 25.0848 173.731 25.1846 174.348 25.1846C175.001 25.1846 175.613 25.0904 176.183 24.902C176.753 24.7136 177.215 24.4365 177.572 24.0707C177.94 23.6939 178.124 23.245 178.124 22.7241C178.124 22.1699 177.923 21.7376 177.518 21.4273C177.127 21.1059 176.628 20.8565 176.023 20.6791C175.428 20.4908 174.823 20.3134 174.206 20.1472C172.983 19.859 171.89 19.5155 170.928 19.1165C169.966 18.7064 169.206 18.191 168.648 17.5703C168.102 16.9386 167.828 16.1351 167.828 15.1597C167.828 14.129 168.131 13.2367 168.737 12.4831C169.355 11.7294 170.162 11.1476 171.16 10.7375C172.157 10.3274 173.225 10.1223 174.365 10.1223C175.803 10.1223 177.115 10.4105 178.303 10.9868C179.49 11.5631 180.375 12.3446 180.956 13.331L178.552 14.6443C178.35 14.2453 178.041 13.8962 177.626 13.597C177.21 13.2867 176.735 13.0428 176.201 12.8655C175.666 12.6882 175.12 12.5939 174.562 12.5828C173.873 12.5606 173.225 12.6438 172.62 12.8322C172.026 13.0207 171.546 13.3088 171.178 13.6966C170.821 14.0736 170.643 14.5446 170.643 15.1098C170.643 15.664 170.833 16.0851 171.213 16.3733C171.605 16.6615 172.11 16.8942 172.727 17.0716C173.356 17.2378 174.039 17.4318 174.776 17.6535C175.856 17.9749 176.866 18.3461 177.803 18.7673C178.742 19.1885 179.495 19.715 180.065 20.3467C180.648 20.9785 180.933 21.7598 180.92 22.6908C180.92 23.7105 180.594 24.6027 179.941 25.3675C179.288 26.1212 178.439 26.6974 177.394 27.0964C176.36 27.4955 175.251 27.6727 174.063 27.6284Z" fill="#1E1983"/>
<defs>
<linearGradient id="paint0_linear_858_3583" x1="19" y1="0" x2="19" y2="38" gradientUnits="userSpaceOnUse">
<stop stop-color="#3558EA"/>
<stop offset="1" stop-color="#0000FF"/>
</linearGradient>
<linearGradient id="paint1_linear_858_3583" x1="24.0554" y1="5.51995" x2="7.31808" y2="55.3902" gradientUnits="userSpaceOnUse">
<stop offset="0.215628" stop-color="#1E1983" stop-opacity="0"/>
<stop offset="0.447191" stop-color="#1E1983" stop-opacity="0.19"/>
<stop offset="0.619792" stop-color="#1E1983"/>
</linearGradient>
</defs>
</svg>
