<svg width="245" height="49" viewBox="0 0 245 49" fill="none" xmlns="http://www.w3.org/2000/svg">
<path d="M68.4604 39.3613C68.4604 40.762 69.5877 41.8975 70.9783 41.8975C72.3688 41.8975 73.4961 40.762 73.4961 39.3613V12.9661C73.4961 11.5654 72.3688 10.4299 70.9783 10.4299C69.5877 10.4299 68.4604 11.5654 68.4604 12.9661V39.3613Z" fill="white"/>
<path d="M83.1881 39.3613C83.1881 40.762 82.0608 41.8975 80.6703 41.8975C79.2797 41.8975 78.1525 40.762 78.1525 39.3613V20.9504C78.1525 19.5497 79.2797 18.4142 80.6703 18.4142C82.0608 18.4142 83.1881 19.5497 83.1881 20.9504V39.3613Z" fill="white"/>
<path d="M138.757 39.3613C138.757 40.762 139.885 41.8975 141.275 41.8975C142.666 41.8975 143.793 40.762 143.793 39.3613V20.9504C143.793 19.5497 142.666 18.4142 141.275 18.4142C139.885 18.4142 138.757 19.5497 138.757 20.9504V39.3613Z" fill="white"/>
<path d="M158.587 42.414C156.162 42.414 154.111 41.8974 152.432 40.8641C150.754 39.8309 149.464 38.4062 148.562 36.5902C147.692 34.7741 147.257 32.6607 147.257 30.2497C147.257 27.8388 147.708 25.7253 148.609 23.9092C149.542 22.0619 150.863 20.6372 152.572 19.6353C154.282 18.602 156.349 18.0854 158.774 18.0854C160.825 18.0854 162.628 18.4768 164.182 19.2595C165.736 20.0423 166.933 21.1382 167.772 22.5472C168.326 23.4441 168.666 24.4048 168.86 25.4022C169.124 26.7642 167.961 27.9014 166.583 27.9014C165.206 27.9014 164.209 26.7318 163.745 25.4251C163.534 24.8327 163.203 24.293 162.69 23.8623C161.789 23.0482 160.374 22.6411 158.447 22.6411C156.209 22.6411 154.608 23.283 153.645 24.5668C152.712 25.8192 152.246 27.6979 152.246 30.2027C152.246 32.7389 152.712 34.6489 153.645 35.9327C154.608 37.1851 156.209 37.8113 158.447 37.8113C160.374 37.8113 161.789 37.4199 162.69 36.6372C163.193 36.1982 163.522 35.6603 163.734 35.0725C164.204 33.7681 165.206 32.598 166.583 32.598C167.961 32.598 169.122 33.736 168.847 35.0957C168.649 36.0743 168.309 37.017 167.772 37.9053C166.902 39.3142 165.674 40.4258 164.089 41.2399C162.535 42.0227 160.701 42.414 158.587 42.414Z" fill="white"/>
<path fill-rule="evenodd" clip-rule="evenodd" d="M177.572 40.8641C179.313 41.8661 181.365 42.3671 183.727 42.3671C186.089 42.3671 188.11 41.8661 189.788 40.8641C191.498 39.8309 192.803 38.4062 193.705 36.5902C194.637 34.7428 195.104 32.6137 195.104 30.2027C195.104 27.7918 194.637 25.6783 193.705 23.8623C192.803 22.0462 191.498 20.6372 189.788 19.6353C188.11 18.602 186.089 18.0854 183.727 18.0854C181.365 18.0854 179.313 18.602 177.572 19.6353C175.832 20.6372 174.495 22.0462 173.562 23.8623C172.63 25.6783 172.164 27.7918 172.164 30.2027C172.164 32.6137 172.63 34.7428 173.562 36.5902C174.495 38.4062 175.832 39.8309 177.572 40.8641ZM188.809 36.0266C187.846 37.2477 186.151 37.8583 183.727 37.8583C181.271 37.8583 179.562 37.2477 178.598 36.0266C177.634 34.7741 177.153 32.8329 177.153 30.2027C177.153 27.5726 177.634 25.647 178.598 24.4259C179.562 23.2047 181.271 22.5942 183.727 22.5942C186.151 22.5942 187.846 23.2047 188.809 24.4259C189.773 25.647 190.255 27.5726 190.255 30.2027C190.255 32.8329 189.773 34.7741 188.809 36.0266Z" fill="white"/>
<path d="M220.456 39.3612C220.456 40.7619 219.329 41.8974 217.938 41.8974C216.548 41.8974 215.42 40.7619 215.42 39.3612V28.3241C215.42 26.2575 215.032 24.7703 214.255 23.8623C213.478 22.9229 212.017 22.4533 209.872 22.4533C208.504 22.4533 207.385 22.6568 206.515 23.0638C205.644 23.4396 204.992 24.0658 204.557 24.9425C204.121 25.7879 203.904 26.9464 203.904 28.418V39.3612C203.904 40.7619 202.776 41.8974 201.386 41.8974C199.995 41.8974 198.868 40.7619 198.868 39.3612V20.8799C198.868 19.5959 199.901 18.555 201.176 18.555C202.451 18.555 203.484 19.5959 203.484 20.8799V22.9229H203.717C204.059 22.0775 204.572 21.2947 205.256 20.5746C205.94 19.8544 206.81 19.2595 207.867 18.7899C208.955 18.3202 210.245 18.0854 211.737 18.0854C213.757 18.0854 215.405 18.4768 216.679 19.2595C217.954 20.0423 218.902 21.1225 219.524 22.5002C220.145 23.8779 220.456 25.4591 220.456 27.2438V39.3612Z" fill="white"/>
<path d="M234.886 42.3671C231.498 42.3671 228.933 41.6939 227.192 40.3475C225.889 39.3161 225.166 37.8888 224.827 36.3381C224.539 35.0209 225.667 33.9131 227.006 33.9131C228.345 33.9131 229.214 35.0647 229.684 36.3276C229.741 36.4811 229.811 36.6316 229.897 36.7781C230.239 37.279 230.798 37.6548 231.575 37.9053C232.383 38.1244 233.518 38.234 234.979 38.234C236.222 38.234 237.155 38.1401 237.777 37.9522C238.429 37.733 238.865 37.4356 239.082 37.0599C239.3 36.6841 239.409 36.2145 239.409 35.6509C239.409 34.7115 239.082 34.054 238.429 33.6783C237.777 33.2712 236.611 32.9111 234.932 32.598L231.296 31.9875C229.928 31.7057 228.731 31.3143 227.705 30.8133C226.711 30.281 225.934 29.5609 225.374 28.6528C224.846 27.7135 224.581 26.5393 224.581 25.1304C224.581 23.0325 225.405 21.3417 227.053 20.058C228.7 18.7429 231.031 18.0854 234.046 18.0854C235.88 18.0854 237.512 18.3828 238.942 18.9777C240.372 19.5726 241.507 20.465 242.346 21.6548C242.884 22.4181 243.205 23.2577 243.388 24.1347C243.661 25.442 242.53 26.5393 241.204 26.5393C239.877 26.5393 238.997 25.3898 238.478 24.1604C238.463 24.1235 238.446 24.0867 238.429 24.0501C238.181 23.4865 237.714 23.0482 237.031 22.7351C236.347 22.4219 235.305 22.2654 233.907 22.2654C232.073 22.2654 230.86 22.5002 230.27 22.9699C229.679 23.4396 229.384 24.1284 229.384 25.0364C229.384 25.9444 229.648 26.5863 230.177 26.962C230.736 27.3065 231.824 27.6509 233.44 27.9953L237.404 28.7468C238.896 29.0286 240.139 29.4513 241.134 30.0149C242.128 30.5785 242.874 31.3143 243.372 32.2223C243.9 33.1303 244.164 34.2106 244.164 35.463C244.164 37.6548 243.341 39.3612 241.693 40.5823C240.077 41.7722 237.808 42.3671 234.886 42.3671Z" fill="white"/>
<path fill-rule="evenodd" clip-rule="evenodd" d="M124.435 42.3671C121.917 42.3671 119.819 41.8661 118.14 40.8641C116.462 39.8309 115.218 38.4062 114.41 36.5902C113.602 34.7428 113.198 32.6137 113.198 30.2027C113.198 27.7918 113.649 25.6783 114.55 23.8623C115.483 22.0462 116.788 20.6372 118.467 19.6353C120.145 18.602 122.135 18.0854 124.435 18.0854C126.517 18.0854 128.351 18.4924 129.937 19.3065C131.553 20.0893 132.796 21.2321 133.667 22.7351C134.568 24.238 135.019 26.054 135.019 28.1832C135.019 28.5999 135.01 29.0228 134.989 29.4462C134.932 30.5927 133.951 31.4239 132.811 31.4239H117.922C117.973 32.6682 118.155 33.7484 118.467 34.6646C118.871 35.7291 119.555 36.5276 120.518 37.0599C121.482 37.5921 122.803 37.8583 124.481 37.8583C126.44 37.8583 127.823 37.5452 128.631 36.919C128.832 36.763 129.003 36.5943 129.147 36.4145C130.012 35.3343 130.96 34.054 132.338 34.054C133.716 34.054 134.898 35.2028 134.534 36.5411C134.331 37.2864 134.01 37.9967 133.527 38.6567C132.657 39.8152 131.444 40.7232 129.89 41.3808C128.367 42.0383 126.549 42.3671 124.435 42.3671ZM119.259 24.191C118.535 25.1718 118.102 26.4556 117.959 28.0423H130.201C130.256 26.8143 130.09 25.7967 129.704 24.9895C129.299 24.0814 128.631 23.4082 127.699 22.9699C126.797 22.5315 125.663 22.3124 124.295 22.3124C121.839 22.3124 120.161 22.9386 119.259 24.191Z" fill="white"/>
<path d="M104.364 39.3612C104.364 40.7619 105.492 41.8974 106.882 41.8974C108.273 41.8974 109.4 40.7619 109.4 39.3612V27.2438C109.4 25.4591 109.089 23.8779 108.468 22.5002C107.846 21.1225 106.898 20.0423 105.623 19.2595C104.349 18.4768 102.701 18.0854 100.681 18.0854C99.1889 18.0854 97.8989 18.3202 96.811 18.7899C95.7541 19.2595 94.8838 19.8544 94.1999 20.5746C93.5161 21.2947 93.0032 22.0775 92.6613 22.9229H92.4281V20.8799C92.4281 19.5959 91.3948 18.555 90.1201 18.555C88.8455 18.555 87.8121 19.5959 87.8121 20.8799V39.3612C87.8121 40.7619 88.9394 41.8974 90.33 41.8974C91.7205 41.8974 92.8478 40.7619 92.8478 39.3612V28.418C92.8478 26.9464 93.0654 25.7879 93.5005 24.9425C93.9357 24.0658 94.5885 23.4396 95.4588 23.0638C96.3292 22.6568 97.4482 22.4533 98.8159 22.4533C100.961 22.4533 102.422 22.9229 103.199 23.8623C103.976 24.7703 104.364 26.2575 104.364 28.3241V39.3612Z" fill="white"/>
<path d="M83.5682 13.0821C83.5682 14.7123 82.2561 16.034 80.6377 16.034C79.0296 16.034 77.7219 14.7286 77.7073 13.1089L77.706 12.9715C77.6912 11.3304 79.0078 9.99211 80.637 9.99211C82.2559 9.99211 83.5682 11.314 83.5682 12.9446V13.0821Z" fill="white"/>
<path d="M144.155 13.0821C144.155 14.7123 142.843 16.034 141.225 16.034C139.617 16.034 138.309 14.7286 138.295 13.1089L138.293 12.9715C138.279 11.3304 139.595 9.99211 141.224 9.99211C142.843 9.99211 144.155 11.314 144.155 12.9446V13.0821Z" fill="white"/>
<path d="M14.1281 12.568C13.5453 11.9809 12.6827 11.7226 11.8667 11.9339C11.0508 12.1218 10.398 12.7323 10.1416 13.5543L0.116928 44.9984C-0.162829 45.8672 0.0703018 46.8066 0.699755 47.4406C1.16602 47.9103 1.77216 48.1451 2.40161 48.1451C2.63474 48.1451 2.89119 48.0981 3.12432 48.0277L34.3639 37.9299C35.1565 37.6716 35.7627 37.014 35.9725 36.1921C36.1823 35.3702 35.9258 34.5013 35.343 33.9143L14.1281 12.568ZM6.10839 42.016L13.4986 18.791L29.1651 34.5718L6.10839 42.016Z" fill="white"/>
<path d="M26.9971 17.7804C27.1603 19.0015 28.186 19.8939 29.375 19.8939C29.4683 19.8939 29.5848 19.8939 29.6781 19.8939L32.5223 19.5182C35.5297 19.119 37.8144 16.5123 37.791 13.4595V12.708C37.791 12.3558 37.9309 12.0505 38.1641 11.8157C38.3972 11.5808 38.7236 11.4399 39.0499 11.4399H43.0132C44.342 11.4399 45.4144 10.3597 45.4144 9.02115C45.4144 7.68261 44.342 6.60238 43.0132 6.60238H39.0499C37.4413 6.60238 35.926 7.23643 34.7837 8.38711C33.6413 9.53779 33.0119 11.0877 33.0119 12.708V13.4595C33.0119 14.0935 32.5456 14.6337 31.9161 14.7041L29.0719 15.0798C27.7664 15.2442 26.8339 16.4654 26.9971 17.7804Z" fill="white"/>
<path d="M50.4722 21.1629C44.4108 16.4897 37.8599 20.6228 35.2255 23.4642C34.3163 24.4271 34.3862 25.9535 35.342 26.8693C35.8083 27.3155 36.3911 27.5269 36.974 27.5269C37.6034 27.5269 38.2562 27.2685 38.7224 26.7754C38.9089 26.564 43.455 21.8204 47.5581 24.9907C48.6072 25.8126 50.1225 25.6012 50.9152 24.5445C51.7312 23.4877 51.5213 21.9613 50.4722 21.1629Z" fill="white"/>
<path d="M22.7532 13.2021C23.2661 13.2021 23.779 13.0377 24.222 12.709C26.903 10.6424 29.6073 5.80488 26.087 0.990809C25.2944 -0.0894215 23.8023 -0.324254 22.7299 0.474177C21.6575 1.27261 21.4244 2.77554 22.217 3.85577C24.0588 6.36848 21.9606 8.36456 21.2845 8.90467C20.2354 9.72659 20.0489 11.2295 20.8416 12.2863C21.3078 12.8968 22.0305 13.2256 22.7532 13.2256V13.2021Z" fill="white"/>
</svg>
