<svg width="172" height="41" viewBox="0 0 172 41" fill="none" xmlns="http://www.w3.org/2000/svg">
<g clip-path="url(#clip0_1_173)">
<path d="M59.7446 30.7113C55.6206 30.7113 52.8806 28.4798 52.7959 24.8924H57.2589C57.2589 26.0506 57.9651 26.785 59.7446 26.785C61.5242 26.785 62.2303 26.0506 62.2303 24.8924C62.2303 23.6778 60.818 23.3953 59.1232 23.0846C56.4962 22.6044 53.1349 21.983 53.1349 17.4918C53.1349 13.9891 55.7901 11.5034 59.7729 11.5034C63.6427 11.5034 66.2696 13.8479 66.4109 17.3505H62.1174C62.0891 16.2771 61.4112 15.4297 59.8294 15.4297C58.191 15.4297 57.5414 16.3619 57.5414 17.3223C57.5414 18.5369 58.9537 18.8194 60.6768 19.1301C63.332 19.6103 66.6934 20.2317 66.6934 24.7229C66.6934 28.395 63.9252 30.7113 59.7446 30.7113Z" fill="#0E0B3D"/>
<path d="M74.4579 30.7113C71.3508 30.7113 67.7069 28.3951 67.7069 23.5366C67.7069 19.0453 70.8141 16.0229 75.2488 16.0229C79.6271 16.0229 82.6778 18.9324 82.6778 23.5084V30.3442H78.7797V28.0278C78.0453 29.7509 76.4634 30.7113 74.4579 30.7113ZM75.2206 26.7568C77.1414 26.7568 78.4407 25.3726 78.4407 23.3671C78.4407 21.3616 77.1414 19.9776 75.2206 19.9776C73.2998 19.9776 72.0004 21.3616 72.0004 23.3671C72.0004 25.3726 73.2998 26.7568 75.2206 26.7568Z" fill="#0E0B3D"/>
<path d="M90.9433 30.7113C87.8361 30.7113 84.1923 28.3951 84.1923 23.5366C84.1923 19.0453 87.2994 16.0229 91.7342 16.0229C96.1124 16.0229 99.1631 18.9324 99.1631 23.5084V30.3442H95.265V28.0278C94.5306 29.7509 92.9488 30.7113 90.9433 30.7113ZM91.7059 26.7568C93.6267 26.7568 94.9261 25.3726 94.9261 23.3671C94.9261 21.3616 93.6267 19.9776 91.7059 19.9776C89.7851 19.9776 88.4858 21.3616 88.4858 23.3671C88.4858 25.3726 89.7851 26.7568 91.7059 26.7568Z" fill="#0E0B3D"/>
<path d="M107.711 30.7113C103.587 30.7113 100.847 28.4798 100.762 24.8924H105.225C105.225 26.0506 105.932 26.785 107.711 26.785C109.491 26.785 110.197 26.0506 110.197 24.8924C110.197 23.6778 108.784 23.3953 107.09 23.0846C104.463 22.6044 101.101 21.983 101.101 17.4918C101.101 13.9891 103.757 11.5034 107.739 11.5034C111.609 11.5034 114.236 13.8479 114.377 17.3505H110.084C110.056 16.2771 109.378 15.4297 107.796 15.4297C106.158 15.4297 105.508 16.3619 105.508 17.3223C105.508 18.5369 106.92 18.8194 108.643 19.1301C111.298 19.6103 114.66 20.2317 114.66 24.7229C114.66 28.395 111.892 30.7113 107.711 30.7113Z" fill="#0E0B3D"/>
<path d="M118.99 30.3438V11.8704H127.859C131.334 11.8704 133.17 13.8759 133.17 16.6441C133.17 18.5367 132.266 19.9772 130.684 20.7399V20.7964C132.774 21.4461 134.017 23.1409 134.017 25.3724C134.017 28.2253 132.153 30.3438 128.594 30.3438H118.99ZM122.266 19.4688H127.464C129.074 19.4688 129.893 18.4802 129.893 17.1808C129.893 15.8815 129.243 14.9211 127.436 14.9211H122.266V19.4688ZM122.266 27.3214H128.029C129.893 27.3214 130.627 26.2481 130.627 24.9204C130.627 23.5081 129.695 22.4347 128.085 22.4347H122.266V27.3214Z" fill="#635BFF"/>
<path d="M142.384 30.7111C137.978 30.7111 134.871 27.6039 134.871 23.3669C134.871 19.1298 137.978 16.0227 142.384 16.0227C146.791 16.0227 149.898 19.1298 149.898 23.3669C149.898 27.6039 146.791 30.7111 142.384 30.7111ZM142.384 27.8864C145.04 27.8864 146.791 25.9938 146.791 23.3669C146.791 20.7399 145.04 18.8474 142.384 18.8474C139.729 18.8474 137.95 20.7399 137.95 23.3669C137.95 25.9938 139.729 27.8864 142.384 27.8864Z" fill="#635BFF"/>
<path d="M151.877 30.3438V10.2886H154.928V30.3438H151.877Z" fill="#635BFF"/>
<path d="M164.487 30.7111C160.052 30.7111 156.945 27.6604 156.945 23.2539C156.945 18.5367 160.448 16.0227 163.951 16.0227C166.069 16.0227 167.877 16.9548 168.866 18.6214V10.2886H171.916V23.2539C171.916 27.7734 168.837 30.7111 164.487 30.7111ZM164.459 27.8864C167.086 27.8864 168.866 25.9938 168.866 23.3669C168.866 20.7399 167.086 18.8474 164.459 18.8474C161.804 18.8474 160.024 20.7399 160.024 23.3669C160.024 25.9938 161.804 27.8864 164.459 27.8864Z" fill="#635BFF"/>
<path fill-rule="evenodd" clip-rule="evenodd" d="M20 40.5C31.05 40.5 40 31.55 40 20.5C40 9.45 31.05 0.5 20 0.5C8.95 0.5 0 9.45 0 20.5C0 22.43 0.27 24.3 0.79 26.07C7.64 29.92 14.12 25.69 16.98 22.61L8.47 32.27L17.74 23.55C14.76 26.5 10.75 33.11 14.8 39.82C16.46 40.27 18.21 40.5 20.01 40.5H20ZM17.73 23.54L18.23 23.07C18.07 23.21 17.9 23.37 17.73 23.54ZM16.97 22.61L17.42 22.1C17.28 22.27 17.13 22.44 16.97 22.61Z" fill="url(#paint0_radial_1_173)"/>
<path d="M17.6799 15.8698L15.6899 17.8098C15.3199 18.1698 14.9899 18.4998 14.7299 18.7898C14.5599 18.9798 14.3899 19.1898 14.2499 19.4198L14.2299 19.3998C14.2299 19.3998 14.1699 19.3498 14.1599 19.3298C13.8099 18.9998 13.4099 18.7398 12.9599 18.5598C12.9399 18.5598 12.9099 18.5398 12.8599 18.5198L12.5599 18.4098C12.1599 18.2498 12.0499 17.7498 12.3599 17.4498C13.2399 16.5898 14.2899 15.5698 14.7899 15.3598C15.2399 15.1798 15.7199 15.1198 16.1899 15.1798C16.6199 15.2398 17.0199 15.4598 17.6799 15.8698Z" fill="white"/>
<path d="M21.08 26.1099C21.24 26.2699 21.35 26.3799 21.44 26.4999C21.57 26.6599 21.68 26.8299 21.78 26.9999C21.89 27.1999 21.98 27.4099 22.15 27.8399C22.29 28.1899 22.76 28.2799 23.03 28.0099L23.1 27.9499C23.98 27.0899 25.03 26.0699 25.24 25.5699C25.43 25.1299 25.49 24.6599 25.42 24.1999C25.36 23.7799 25.14 23.3899 24.72 22.7399L22.73 24.6899C22.36 25.0599 22.01 25.3899 21.7 25.6499C21.51 25.8099 21.31 25.9599 21.09 26.0999L21.08 26.1099Z" fill="white"/>
<path fill-rule="evenodd" clip-rule="evenodd" d="M21.9299 23.8799L26.4799 19.3899C27.1399 18.7499 27.4699 18.4199 27.6399 18.0199C27.8099 17.6099 27.8099 17.1599 27.8099 16.2499V15.8199C27.8099 14.4199 27.8099 13.7199 27.3699 13.2899C26.9299 12.8599 26.2099 12.8599 24.7799 12.8599H24.3399C23.4099 12.8599 22.9399 12.8599 22.5299 13.0299C22.1099 13.1999 21.7799 13.5199 21.1299 14.1699L16.5599 18.6399C15.7899 19.3899 15.3099 19.8599 15.1299 20.3099C15.0699 20.4499 15.0399 20.5899 15.0399 20.7399C15.0399 21.3499 15.5499 21.8499 16.5599 22.8399L16.6999 22.9699L18.2899 21.3799C18.5199 21.1499 18.8899 21.1499 19.1199 21.3799C19.3499 21.5999 19.3499 21.9699 19.1199 22.1899L17.5199 23.7799L17.6299 23.8799C18.6399 24.8699 19.1499 25.3599 19.7799 25.3599C19.9199 25.3599 20.0499 25.3399 20.1899 25.2899C20.6599 25.1199 21.1399 24.6499 21.9299 23.8799ZM24.0599 18.6099C23.4699 19.1899 22.5099 19.1899 21.9099 18.6099C21.3199 18.0299 21.3199 17.0899 21.9099 16.5099C22.4999 15.9299 23.4599 15.9299 24.0599 16.5099C24.6499 17.0899 24.6499 18.0299 24.0599 18.6099Z" fill="white"/>
</g>
<defs>
<radialGradient id="paint0_radial_1_173" cx="0" cy="0" r="1" gradientUnits="userSpaceOnUse" gradientTransform="translate(20.09 20.48) rotate(90) scale(20)">
<stop stop-color="#9893FF"/>
<stop offset="1" stop-color="#635BFF"/>
</radialGradient>
<clipPath id="clip0_1_173">
<rect width="172" height="40" fill="white" transform="translate(0 0.5)"/>
</clipPath>
</defs>
</svg>
