<svg width="92" height="30" viewBox="0 0 92 30" fill="none" xmlns="http://www.w3.org/2000/svg">
<path d="M15.8727 17.6584H5.07927V29.5232H0V0.515863H17.9362V5.19831H5.07927V13.095H15.8727V17.6584Z" fill="#111928"/>
<path d="M19.1384 19.6822C19.1384 13.5712 23.5431 9.36489 29.6144 9.36489C35.6857 9.36489 40.0904 13.5712 40.0904 19.6822C40.0904 25.7931 35.6857 29.9994 29.6144 29.9994C23.5431 29.9994 19.1384 25.7931 19.1384 19.6822ZM23.9796 19.6822C23.9796 23.2535 26.2811 25.6741 29.6144 25.6741C32.9476 25.6741 35.2492 23.2535 35.2492 19.6822C35.2492 16.1108 32.9476 13.6902 29.6144 13.6902C26.2811 13.6902 23.9796 16.1108 23.9796 19.6822Z" fill="#111928"/>
<path d="M48.8086 29.5232H44.0071V0H48.8086V29.5232Z" fill="#111928"/>
<path d="M56.3075 5.99194C54.6409 5.99194 53.3314 4.68245 53.3314 3.05549C53.3314 1.42854 54.6409 0.158727 56.3075 0.158727C57.8948 0.158727 59.2043 1.42854 59.2043 3.05549C59.2043 4.68245 57.8948 5.99194 56.3075 5.99194ZM53.8869 29.5232V9.92044H58.7281V29.5232H53.8869Z" fill="#111928"/>
<path d="M62.5791 19.6822C62.5791 13.5712 66.9837 9.36489 73.055 9.36489C79.1264 9.36489 83.531 13.5712 83.531 19.6822C83.531 25.7931 79.1264 29.9994 73.055 29.9994C66.9837 29.9994 62.5791 25.7931 62.5791 19.6822ZM67.4202 19.6822C67.4202 23.2535 69.7218 25.6741 73.055 25.6741C76.3883 25.6741 78.6899 23.2535 78.6899 19.6822C78.6899 16.1108 76.3883 13.6902 73.055 13.6902C69.7218 13.6902 67.4202 16.1108 67.4202 19.6822Z" fill="#111928"/>
<rect x="85.8382" y="24.4849" width="5.51476" height="5.51476" fill="#3758F9"/>
</svg>
