<svg width="131" height="32" viewBox="0 0 131 32" fill="none" xmlns="http://www.w3.org/2000/svg">
<path d="M0.590191 21.6852C0.679948 21.9545 0.949223 22.0892 1.21849 22.0892C10.1942 21.4609 19.1699 21.6852 28.0558 22.7623C29.1778 22.897 30.2997 22.3135 30.6588 21.2813C30.9729 20.3838 30.2549 19.4413 29.3124 19.3964C19.7533 19.0823 10.2391 19.6657 0.904346 21.2365C0.635075 21.2365 0.500434 21.4609 0.590191 21.6852Z" fill="white"/>
<path d="M0.00692317 12.1256C-0.0379553 12.35 0.141553 12.5744 0.365946 12.5744C10.0597 11.9012 19.7983 12.1705 29.3574 13.3373C30.2999 13.4719 31.1077 12.6193 30.8384 11.7217C30.5243 10.5997 29.4472 9.88167 28.3252 9.83679C18.9905 9.61239 9.70067 10.1958 0.590338 11.5871C0.365946 11.5871 0.0966801 11.8114 0.00692317 12.1256Z" fill="white"/>
<path opacity="0.5" d="M4.49379 16.2096C4.2694 16.2545 4.13477 16.4789 4.13477 16.7033C4.13477 16.9277 4.31428 17.1072 4.53867 17.1072C14.3222 16.3892 20.2461 16.8828 29.4911 18.1394C30.5233 18.2741 31.4658 17.556 31.5106 16.5238C31.5555 15.4916 30.7028 14.6389 29.6257 14.594C20.1564 14.235 14.1875 14.594 4.49379 16.2096Z" fill="white"/>
<path d="M22.8951 2.92574C23.5234 2.97062 23.7478 2.11792 23.2093 1.80377C22.8054 1.57938 22.4015 1.39987 21.9975 1.22035C17.5546 -0.619665 12.7526 -0.305515 8.7584 1.66914C8.17498 1.93841 8.44425 2.7911 9.07255 2.74622C13.6502 2.65647 18.2726 2.70134 22.8951 2.92574Z" fill="white"/>
<path opacity="0.5" d="M7.54512 6.20191C7.05146 6.24679 6.64755 6.51606 6.37828 6.91996C6.19877 7.18923 6.42316 7.54826 6.73731 7.50338C14.8603 7.0546 19.8867 7.36875 27.5609 8.26632C28.4585 8.35607 29.0419 7.41363 28.5482 6.6507C27.7404 5.52873 26.3941 4.94531 25.0029 4.94531C18.4057 4.94531 14.4115 5.30434 7.54512 6.20191Z" fill="url(#paint0_linear_2965_381)"/>
<path d="M9.83683 29.5841C9.11877 29.6738 8.98414 30.6163 9.65732 30.8855C14.19 32.6807 19.0818 32.2319 23.076 30.0777C23.7043 29.7187 23.3901 28.7763 22.7169 28.8211C18.4086 28.9109 14.1003 29.1353 9.83683 29.5841Z" fill="white"/>
<path opacity="0.5" d="M28.1463 25.8585C28.7298 25.1405 28.1912 24.1083 27.2937 24.0634C19.6643 23.8839 13.7852 24.1532 6.06614 25.32C5.79687 25.3649 5.61735 25.679 5.79687 25.9034C6.06614 26.2176 6.42517 26.3971 6.82907 26.3522C13.516 26.0381 18.3628 26.442 24.7356 27.16C26.0371 27.2947 27.3385 26.8908 28.1463 25.8585Z" fill="white"/>
<path d="M46.9926 27.1392H42.9395L50.9848 4.862H54.9771L63.0225 27.1392H58.9083L57.1103 21.9889H48.7906L46.9926 27.1392ZM52.4781 11.5055L49.9487 18.6976H55.9827L53.4228 11.5055C53.24 10.9265 53.0267 10.2561 52.9657 9.79894C52.8743 10.2256 52.6914 10.896 52.4781 11.5055Z" fill="white"/>
<path d="M67.1263 9.06754C65.8464 9.06754 64.8407 8.06187 64.8407 6.81239C64.8407 5.56292 65.8464 4.58772 67.1263 4.58772C68.3453 4.58772 69.351 5.56292 69.351 6.81239C69.351 8.06187 68.3453 9.06754 67.1263 9.06754ZM65.2674 27.1392V12.0846H68.9853V27.1392H65.2674Z" fill="white"/>
<path d="M76.575 27.1392H72.8875V4.46582H76.575V27.1392Z" fill="white"/>
<path d="M84.9549 27.5354C81.755 27.5354 79.8046 25.6764 79.8046 22.8422C79.8046 20.069 81.816 18.3319 85.3816 18.0577L89.8918 17.7224V17.3872C89.8918 15.3454 88.6729 14.5226 86.7834 14.5226C84.5892 14.5226 83.3702 15.4368 83.3702 17.0215H80.2008C80.2008 13.7607 82.8826 11.6274 86.9663 11.6274C91.0194 11.6274 93.5184 13.8216 93.5184 17.9967V27.1392H90.2575L89.9833 24.9145C89.3433 26.4688 87.3015 27.5354 84.9549 27.5354ZM86.1739 24.7317C88.4595 24.7317 89.9223 23.3603 89.9223 21.0442V20.2519L86.7834 20.4957C84.4673 20.709 83.5835 21.4709 83.5835 22.6899C83.5835 24.0612 84.4978 24.7317 86.1739 24.7317Z" fill="white"/>
<path d="M100.889 27.1392H97.1708V12.0846H100.615L100.919 14.035C101.864 12.5112 103.692 11.6274 105.734 11.6274C109.513 11.6274 111.464 13.974 111.464 17.8748V27.1392H107.746V18.7586C107.746 16.2292 106.496 15.0102 104.576 15.0102C102.291 15.0102 100.889 16.5949 100.889 19.0329V27.1392Z" fill="white"/>
<path d="M121.303 27.5354C116.945 27.5354 114.233 24.3355 114.233 19.6728C114.233 14.9797 116.976 11.6274 121.516 11.6274C123.619 11.6274 125.478 12.5112 126.423 14.0045V4.46582H130.11V27.1392H126.697L126.453 24.7926C125.539 26.5297 123.589 27.5354 121.303 27.5354ZM122.126 24.1222C124.716 24.1222 126.392 22.2632 126.392 19.5509C126.392 16.8387 124.716 14.9492 122.126 14.9492C119.535 14.9492 117.951 16.8691 117.951 19.5509C117.951 22.2327 119.535 24.1222 122.126 24.1222Z" fill="white"/>
<defs>
<linearGradient id="paint0_linear_2965_381" x1="6.31445" y1="6.60879" x2="28.7285" y2="6.60879" gradientUnits="userSpaceOnUse">
<stop stop-color="white"/>
<stop offset="1" stop-color="white"/>
</linearGradient>
</defs>
</svg>
