<svg width="109" height="24" viewBox="0 0 109 24" fill="none" xmlns="http://www.w3.org/2000/svg">
<path d="M41.8523 4.92317H38.5703V23.6664H49.6983V20.6408H41.8523V4.92317Z" fill="white"/>
<path d="M57.3218 23.9998C60.6294 23.9998 62.9371 22.3331 63.4755 19.5639H60.5781C60.2192 20.769 59.091 21.4357 57.3731 21.4357C55.2962 21.4357 54.1167 20.3075 53.886 18.0768L63.4242 18.0511V17.1024C63.4242 13.1538 61.014 10.6154 57.2192 10.6154C53.5013 10.6154 50.9116 13.3589 50.9116 17.3332C50.9116 21.2562 53.5526 23.9998 57.3218 23.9998ZM57.2449 13.1794C59.1166 13.1794 60.3217 14.3333 60.3217 16.0768H53.9629C54.2706 14.1794 55.3987 13.1794 57.2449 13.1794Z" fill="white"/>
<path d="M68.9666 23.6664H72.0435L77.3254 11H74.0947L71.7871 16.8204C71.2486 18.205 70.7871 19.5383 70.6076 20.3332C70.4538 19.6409 70.0179 18.3332 69.4794 16.8204L67.2743 11H63.9411L68.9666 23.6664Z" fill="white"/>
<path d="M84.1643 23.9998C87.4719 23.9998 89.7796 22.3331 90.318 19.5639H87.4206C87.0617 20.769 85.9335 21.4357 84.2155 21.4357C82.1387 21.4357 80.9592 20.3075 80.7284 18.0768L90.2667 18.0511V17.1024C90.2667 13.1538 87.8565 10.6154 84.0617 10.6154C80.3438 10.6154 77.7541 13.3589 77.7541 17.3332C77.7541 21.2562 80.3951 23.9998 84.1643 23.9998ZM84.0873 13.1794C85.9591 13.1794 87.1642 14.3333 87.1642 16.0768H80.8054C81.113 14.1794 82.2412 13.1794 84.0873 13.1794Z" fill="white"/>
<path d="M95.9241 23.6664V4.58984H92.8216V23.6664H95.9241Z" fill="white"/>
<path d="M98.2311 19.8203C98.2311 22.3075 100.231 23.9998 103.385 23.9998C106.513 23.9998 108.692 22.41 108.692 19.846C108.692 17.8973 107.616 16.923 105.487 16.4358L103.205 15.8973C102.128 15.6409 101.564 15.1794 101.564 14.4615C101.564 13.5128 102.282 12.9487 103.513 12.9487C104.718 12.9487 105.436 13.641 105.462 14.7179H108.436C108.41 12.2564 106.487 10.6154 103.641 10.6154C100.718 10.6154 98.6157 12.1025 98.6157 14.5897C98.6157 16.6153 99.7183 17.6922 102 18.205L104.282 18.7434C105.41 18.9998 105.744 19.4614 105.744 20.1024C105.744 21.0255 104.949 21.6152 103.487 21.6152C102.052 21.6152 101.231 20.9229 101.205 19.8203H98.2311Z" fill="white"/>
<path d="M0 1.97233C0 0.883041 0.883041 0 1.97233 0H4.93082C6.0201 0 6.90315 0.883041 6.90315 1.97233V23.6679H0V1.97233Z" fill="white"/>
<path opacity="0.6" d="M9.85742 6.90787C9.85742 5.81859 10.7405 4.93555 11.8297 4.93555H14.7882C15.8775 4.93555 16.7606 5.81859 16.7606 6.90787V23.6727H9.85742V6.90787Z" fill="white"/>
<path opacity="0.3" d="M19.7246 4.93326C19.7246 3.84398 20.6077 2.96094 21.6969 2.96094H24.6554C25.7447 2.96094 26.6278 3.84398 26.6278 4.93327V23.6704H19.7246V4.93326Z" fill="white"/>
</svg>
