<svg width="206" height="46" viewBox="0 0 206 46" fill="none" xmlns="http://www.w3.org/2000/svg">
<path d="M62.0254 35.1057V26.6004C62.0254 23.6462 61.993 21.4063 61.7657 19.9779L67.7714 35.1057H71.6021L77.6402 19.9454C77.413 21.6335 77.413 23.0294 77.413 27.8015V35.1057H81.4384V11.3751H77.3481L69.6868 30.2687L62.0254 11.3751H58V35.1057H62.0254Z" fill="white"/>
<path d="M90.8784 35.5278C93.378 35.5278 95.5531 34.3916 96.2348 32.7359L96.527 35.1057H100.001V25.3668C100.001 20.9193 97.3385 18.582 93.0209 18.582C88.6709 18.582 85.8141 20.8544 85.8141 24.328H89.1903C89.1903 22.6399 90.4888 21.666 92.8262 21.666C94.8389 21.666 96.1374 22.5425 96.1374 24.7175V25.0746L91.3329 25.4317C87.5347 25.7239 85.3921 27.5743 85.3921 30.5284C85.3921 33.5475 87.4697 35.5278 90.8784 35.5278ZM92.1769 32.5411C90.3914 32.5411 89.4175 31.827 89.4175 30.3661C89.4175 29.0676 90.359 28.256 92.8262 28.0288L96.1699 27.7691V28.6131C96.1699 31.0803 94.6116 32.5411 92.1769 32.5411Z" fill="white"/>
<path d="M113.955 19.004C113.306 18.8417 112.754 18.7768 112.202 18.7768C110.059 18.7768 108.534 19.848 107.852 21.4387L107.625 19.1014H103.891V35.1057H107.852V27.3146C107.852 24.1981 109.637 22.6723 112.494 22.6723H113.955V19.004Z" fill="white"/>
<path d="M120.629 35.1057V30.7881L122.966 28.3534L127.154 35.1057H131.699L125.725 25.4317L131.828 19.0689H126.862L120.629 25.7888V10.9531H116.701V35.1057H120.629Z" fill="white"/>
<path d="M140.549 35.5278C144.737 35.5278 147.658 33.4177 148.34 29.9116H144.672C144.217 31.4374 142.789 32.2814 140.614 32.2814C137.984 32.2814 136.491 30.8531 136.199 28.0288L148.275 27.9963V26.7952C148.275 21.7958 145.224 18.582 140.419 18.582C135.712 18.582 132.433 22.0555 132.433 27.0873C132.433 32.0542 135.777 35.5278 140.549 35.5278ZM140.451 21.8283C142.821 21.8283 144.347 23.2891 144.347 25.4966H136.296C136.686 23.0944 138.114 21.8283 140.451 21.8283Z" fill="white"/>
<path d="M156.74 35.1057V22.3802H159.857V19.0689H156.74V14.0696H152.78V19.0689H149.696V22.3802H152.78V35.1057H156.74Z" fill="white"/>
<path d="M164.299 15.8551C165.597 15.8551 166.669 14.7838 166.669 13.4528C166.669 12.1218 165.597 11.083 164.299 11.083C162.936 11.083 161.864 12.1218 161.864 13.4528C161.864 14.7838 162.936 15.8551 164.299 15.8551ZM162.319 35.1057H166.279V19.0689H162.319V35.1057Z" fill="white"/>
<path d="M174.332 35.1057V26.4705C174.332 23.8735 175.825 22.1854 178.26 22.1854C180.305 22.1854 181.636 23.4839 181.636 26.1784V35.1057H185.596V25.2369C185.596 21.0816 183.519 18.582 179.493 18.582C177.318 18.582 175.37 19.5234 174.364 21.1466L174.039 19.0689H170.371V35.1057H174.332Z" fill="white"/>
<path d="M188.579 26.7302C188.579 31.3725 191.565 34.7811 196.11 34.7811C198.415 34.7811 200.395 33.8397 201.402 32.3464V35.0084C201.402 37.6703 199.649 39.3909 196.922 39.3909C194.487 39.3909 192.896 38.1573 192.637 36.0796H188.676C189.163 40.3648 192.312 42.9943 196.922 42.9943C202.116 42.9943 205.33 39.6506 205.33 34.2942V19.0689H201.661L201.434 21.2764C200.493 19.5559 198.61 18.5495 196.208 18.5495C191.63 18.5495 188.579 22.0555 188.579 26.7302ZM192.572 26.6328C192.572 24.0033 194.26 22.0231 196.889 22.0231C199.649 22.0231 201.304 23.9059 201.304 26.6328C201.304 29.4247 199.616 31.34 196.889 31.34C194.292 31.34 192.572 29.3273 192.572 26.6328Z" fill="white"/>
<g clip-path="url(#clip0_1674_1558)">
<path d="M35.7366 13.3306L38.5199 18.8183C39.0317 19.8275 38.636 21.0605 37.6179 21.5768L40.7898 27.831C41.0259 28.2965 40.6654 28.8461 40.1443 28.8175C37.0543 28.6483 28.7738 28.3597 25.7419 29.8974L20.2601 32.6776L13.7668 19.8749L19.2516 17.0931C22.2236 15.5858 26.2555 7.66219 27.7528 4.54561C27.9963 4.03868 28.7226 4.03068 28.977 4.53226L32.9826 12.4301C33.9888 11.9198 35.2217 12.3155 35.7366 13.3306Z" fill="white"/>
<path d="M5.55433 26.3494L10.1865 35.4827C10.7105 36.5157 11.9434 36.8965 12.9615 36.3801L14.7738 35.4609L17.5563 40.9472C18.0686 41.9572 19.3026 42.3607 20.3126 41.8484C21.3226 41.3362 21.7261 40.1022 21.2138 39.0922L11.938 20.8032L6.46822 23.5774C5.43516 24.1013 5.03948 25.3343 5.55433 26.3494ZM11.0916 32.7302L8.30829 27.2424L10.1385 26.3142L12.9218 31.8019L11.0916 32.7302Z" fill="white"/>
</g>
<defs>
<clipPath id="clip0_1674_1558">
<rect width="33.4777" height="33.4777" fill="white" transform="translate(0 16.1372) rotate(-26.8931)"/>
</clipPath>
</defs>
</svg>
