<svg width="206" height="45" viewBox="0 0 206 45" fill="none" xmlns="http://www.w3.org/2000/svg">
<path d="M62.0254 34.1116V25.6062C62.0254 22.6521 61.993 20.4121 61.7657 18.9838L67.7714 34.1116H71.6021L77.6402 18.9513C77.413 20.6394 77.413 22.0353 77.413 26.8074V34.1116H81.4384V10.381H77.3481L69.6868 29.2746L62.0254 10.381H58V34.1116H62.0254Z" fill="#0D0F20"/>
<path d="M90.8784 34.5336C93.378 34.5336 95.5531 33.3974 96.2348 31.7418L96.527 34.1116H100.001V24.3726C100.001 19.9252 97.3385 17.5878 93.0209 17.5878C88.6709 17.5878 85.8141 19.8603 85.8141 23.3338H89.1903C89.1903 21.6457 90.4888 20.6718 92.8262 20.6718C94.8389 20.6718 96.1374 21.5483 96.1374 23.7234V24.0805L91.3329 24.4376C87.5347 24.7297 85.3921 26.5801 85.3921 29.5343C85.3921 32.5534 87.4697 34.5336 90.8784 34.5336ZM92.1769 31.547C90.3914 31.547 89.4175 30.8328 89.4175 29.372C89.4175 28.0734 90.359 27.2619 92.8262 27.0346L96.1699 26.7749V27.619C96.1699 30.0862 94.6116 31.547 92.1769 31.547Z" fill="#0D0F20"/>
<path d="M113.955 18.0099C113.306 17.8475 112.754 17.7826 112.202 17.7826C110.059 17.7826 108.534 18.8539 107.852 20.4446L107.625 18.1072H103.891V34.1116H107.852V26.3204C107.852 23.204 109.637 21.6782 112.494 21.6782H113.955V18.0099Z" fill="#0D0F20"/>
<path d="M120.629 34.1116V29.794L122.966 27.3593L127.154 34.1116H131.699L125.725 24.4376L131.828 18.0748H126.862L120.629 24.7947V9.95898H116.701V34.1116H120.629Z" fill="#0D0F20"/>
<path d="M140.549 34.5336C144.737 34.5336 147.658 32.4235 148.34 28.9175H144.672C144.217 30.4433 142.789 31.2873 140.614 31.2873C137.984 31.2873 136.491 29.8589 136.199 27.0346L148.275 27.0022V25.801C148.275 20.8017 145.224 17.5878 140.419 17.5878C135.712 17.5878 132.433 21.0614 132.433 26.0932C132.433 31.0601 135.777 34.5336 140.549 34.5336ZM140.451 20.8342C142.821 20.8342 144.347 22.295 144.347 24.5025H136.296C136.686 22.1002 138.114 20.8342 140.451 20.8342Z" fill="#0D0F20"/>
<path d="M156.74 34.1116V21.386H159.857V18.0748H156.74V13.0755H152.78V18.0748H149.696V21.386H152.78V34.1116H156.74Z" fill="#0D0F20"/>
<path d="M164.299 14.8609C165.597 14.8609 166.669 13.7896 166.669 12.4586C166.669 11.1277 165.597 10.0888 164.299 10.0888C162.936 10.0888 161.864 11.1277 161.864 12.4586C161.864 13.7896 162.936 14.8609 164.299 14.8609ZM162.319 34.1116H166.279V18.0748H162.319V34.1116Z" fill="#0D0F20"/>
<path d="M174.332 34.1116V25.4764C174.332 22.8793 175.825 21.1912 178.26 21.1912C180.305 21.1912 181.636 22.4898 181.636 25.1842V34.1116H185.596V24.2428C185.596 20.0875 183.519 17.5878 179.493 17.5878C177.318 17.5878 175.37 18.5293 174.364 20.1524L174.039 18.0748H170.371V34.1116H174.332Z" fill="#0D0F20"/>
<path d="M188.579 25.7361C188.579 30.3783 191.565 33.787 196.11 33.787C198.415 33.787 200.395 32.8455 201.402 31.3522V34.0142C201.402 36.6762 199.649 38.3967 196.922 38.3967C194.487 38.3967 192.896 37.1631 192.637 35.0855H188.676C189.163 39.3706 192.312 42.0002 196.922 42.0002C202.116 42.0002 205.33 38.6565 205.33 33.3V18.0748H201.661L201.434 20.2823C200.493 18.5617 198.61 17.5554 196.208 17.5554C191.63 17.5554 188.579 21.0614 188.579 25.7361ZM192.572 25.6387C192.572 23.0092 194.26 21.0289 196.889 21.0289C199.649 21.0289 201.304 22.9118 201.304 25.6387C201.304 28.4305 199.616 30.3459 196.889 30.3459C194.292 30.3459 192.572 28.3332 192.572 25.6387Z" fill="#0D0F20"/>
<g clip-path="url(#clip0_1674_1549)">
<path d="M35.7366 12.3365L38.5199 17.8242C39.0317 18.8334 38.636 20.0663 37.6179 20.5827L40.7898 26.8369C41.0259 27.3024 40.6654 27.8519 40.1443 27.8234C37.0543 27.6542 28.7738 27.3655 25.7419 28.9032L20.2601 31.6835L13.7668 18.8807L19.2516 16.099C22.2236 14.5917 26.2555 6.66805 27.7528 3.55147C27.9963 3.04454 28.7226 3.03654 28.977 3.53812L32.9826 11.4359C33.9888 10.9256 35.2217 11.3213 35.7366 12.3365Z" fill="#3056D3"/>
<path d="M5.55433 25.3553L10.1865 34.4886C10.7105 35.5216 11.9434 35.9023 12.9615 35.3859L14.7738 34.4668L17.5563 39.953C18.0686 40.963 19.3026 41.3665 20.3126 40.8543C21.3226 40.342 21.7261 39.108 21.2138 38.098L11.938 19.809L6.46822 22.5832C5.43516 23.1072 5.03948 24.3401 5.55433 25.3553ZM11.0916 31.736L8.30829 26.2483L10.1385 25.32L12.9218 30.8078L11.0916 31.736Z" fill="#3056D3"/>
</g>
<defs>
<clipPath id="clip0_1674_1549">
<rect width="33.4777" height="33.4777" fill="white" transform="translate(0 15.1431) rotate(-26.8931)"/>
</clipPath>
</defs>
</svg>
