<svg width="164" height="34" viewBox="0 0 164 34" fill="none" xmlns="http://www.w3.org/2000/svg">
<path d="M0 8.94737C0 4.00587 4.00587 0 8.94737 0H25.0526C29.9941 0 34 4.00587 34 8.94737V25.0526C34 29.9941 29.9941 34 25.0526 34H8.94737C4.00587 34 0 29.9941 0 25.0526V8.94737Z" fill="#465FFF"/>
<g filter="url(#filter0_d_7762_1863)">
<path d="M8.9502 8.94786C8.9502 7.95956 9.75137 7.15839 10.7397 7.15839C11.728 7.15839 12.5291 7.95956 12.5291 8.94786V25.0531C12.5291 26.0414 11.728 26.8426 10.7397 26.8426C9.75137 26.8426 8.9502 26.0414 8.9502 25.0531V8.94786Z" fill="white"/>
</g>
<g filter="url(#filter1_d_7762_1863)">
<path d="M15.6636 16.1042C15.6636 15.1159 16.4647 14.3147 17.453 14.3147C18.4413 14.3147 19.2425 15.1159 19.2425 16.1042V25.0515C19.2425 26.0398 18.4413 26.841 17.453 26.841C16.4647 26.841 15.6636 26.0398 15.6636 25.0515V16.1042Z" fill="white" fill-opacity="0.9" shape-rendering="crispEdges"/>
</g>
<g filter="url(#filter2_d_7762_1863)">
<path d="M22.3706 11.6301C22.3706 10.6418 23.1718 9.84058 24.1601 9.84058C25.1484 9.84058 25.9496 10.6418 25.9496 11.63V25.0511C25.9496 26.0394 25.1484 26.8406 24.1601 26.8406C23.1718 26.8406 22.3706 26.0394 22.3706 25.0511V11.6301Z" fill="white" fill-opacity="0.7" shape-rendering="crispEdges"/>
</g>
<path d="M46.75 10.7471H52.1565V26.2341H55.3904V10.7471H60.7969V7.76593H46.75V10.7471Z" fill="#101828"/>
<path d="M64.4061 26.5625C66.3515 26.5625 68.0442 25.6783 68.5747 24.3898L68.8021 26.2341H71.5054V18.6548C71.5054 15.1936 69.4337 13.3746 66.0736 13.3746C62.6882 13.3746 60.4649 15.1431 60.4649 17.8463H63.0924C63.0924 16.5326 64.1029 15.7747 65.922 15.7747C67.4884 15.7747 68.4989 16.4568 68.4989 18.1495V18.4274L64.7598 18.7053C61.8039 18.9327 60.1365 20.3728 60.1365 22.6718C60.1365 25.0214 61.7534 26.5625 64.4061 26.5625ZM65.4167 24.2382C64.0272 24.2382 63.2692 23.6824 63.2692 22.5455C63.2692 21.5349 64.0019 20.9033 65.922 20.7265L68.5242 20.5244V21.1812C68.5242 23.1013 67.3115 24.2382 65.4167 24.2382Z" fill="#101828"/>
<path d="M76.0744 11.2524C77.085 11.2524 77.9187 10.4187 77.9187 9.38284C77.9187 8.34701 77.085 7.53856 76.0744 7.53856C75.0133 7.53856 74.1796 8.34701 74.1796 9.38284C74.1796 10.4187 75.0133 11.2524 76.0744 11.2524ZM74.5333 26.2341H77.6155V13.7535H74.5333V26.2341Z" fill="#101828"/>
<path d="M83.9075 26.2341V7.4375H80.8505V26.2341H83.9075Z" fill="#101828"/>
<path d="M89.1871 26.2341L90.6777 21.9644H97.5749L99.0654 26.2341H102.476L95.8064 7.76593H92.4967L85.827 26.2341H89.1871ZM93.7347 13.2735C93.9115 12.7682 94.0631 12.2124 94.1389 11.8587C94.1894 12.2377 94.3663 12.7935 94.5179 13.2735L96.6401 19.2359H91.6378L93.7347 13.2735Z" fill="#101828"/>
<path d="M108.898 26.5625C110.793 26.5625 112.41 25.7288 113.168 24.2887L113.37 26.2341H116.2V7.4375H113.143V15.3452C112.36 14.1072 110.818 13.3746 109.075 13.3746C105.311 13.3746 103.037 16.1536 103.037 20.0443C103.037 23.9098 105.286 26.5625 108.898 26.5625ZM109.58 23.7329C107.433 23.7329 106.119 22.1665 106.119 19.9433C106.119 17.72 107.433 16.1284 109.58 16.1284C111.728 16.1284 113.117 17.6948 113.117 19.9433C113.117 22.1918 111.728 23.7329 109.58 23.7329Z" fill="#101828"/>
<path d="M122.494 26.2341V19.1601C122.494 17.139 123.681 16.1789 125.147 16.1789C126.612 16.1789 127.547 17.1137 127.547 18.8569V26.2341H130.629V19.1601C130.629 17.1137 131.766 16.1536 133.257 16.1536C134.722 16.1536 135.682 17.0884 135.682 18.8822V26.2341H138.739V18.0737C138.739 15.1936 137.071 13.3746 134.04 13.3746C132.145 13.3746 130.68 14.3094 130.048 15.7494C129.391 14.3094 128.077 13.3746 126.183 13.3746C124.389 13.3746 123.126 14.183 122.494 15.2189L122.241 13.7535H119.412V26.2341H122.494Z" fill="#101828"/>
<path d="M143.306 11.2524C144.316 11.2524 145.15 10.4187 145.15 9.38284C145.15 8.34701 144.316 7.53856 143.306 7.53856C142.245 7.53856 141.411 8.34701 141.411 9.38284C141.411 10.4187 142.245 11.2524 143.306 11.2524ZM141.765 26.2341H144.847V13.7535H141.765V26.2341Z" fill="#101828"/>
<path d="M151.114 26.2341V19.5138C151.114 17.4927 152.276 16.1789 154.171 16.1789C155.762 16.1789 156.798 17.1895 156.798 19.2864V26.2341H159.88V18.5537C159.88 15.3199 158.263 13.3746 155.131 13.3746C153.438 13.3746 151.922 14.1072 151.139 15.3705L150.886 13.7535H148.031V26.2341H151.114Z" fill="#101828"/>
<defs>
<filter id="filter0_d_7762_1863" x="7.9502" y="6.65839" width="5.57886" height="21.6842" filterUnits="userSpaceOnUse" color-interpolation-filters="sRGB">
<feFlood flood-opacity="0" result="BackgroundImageFix"/>
<feColorMatrix in="SourceAlpha" type="matrix" values="0 0 0 0 0 0 0 0 0 0 0 0 0 0 0 0 0 0 127 0" result="hardAlpha"/>
<feOffset dy="0.5"/>
<feGaussianBlur stdDeviation="0.5"/>
<feComposite in2="hardAlpha" operator="out"/>
<feColorMatrix type="matrix" values="0 0 0 0 0 0 0 0 0 0 0 0 0 0 0 0 0 0 0.12 0"/>
<feBlend mode="normal" in2="BackgroundImageFix" result="effect1_dropShadow_7762_1863"/>
<feBlend mode="normal" in="SourceGraphic" in2="effect1_dropShadow_7762_1863" result="shape"/>
</filter>
<filter id="filter1_d_7762_1863" x="14.6636" y="13.8147" width="5.57886" height="14.5263" filterUnits="userSpaceOnUse" color-interpolation-filters="sRGB">
<feFlood flood-opacity="0" result="BackgroundImageFix"/>
<feColorMatrix in="SourceAlpha" type="matrix" values="0 0 0 0 0 0 0 0 0 0 0 0 0 0 0 0 0 0 127 0" result="hardAlpha"/>
<feOffset dy="0.5"/>
<feGaussianBlur stdDeviation="0.5"/>
<feComposite in2="hardAlpha" operator="out"/>
<feColorMatrix type="matrix" values="0 0 0 0 0 0 0 0 0 0 0 0 0 0 0 0 0 0 0.12 0"/>
<feBlend mode="normal" in2="BackgroundImageFix" result="effect1_dropShadow_7762_1863"/>
<feBlend mode="normal" in="SourceGraphic" in2="effect1_dropShadow_7762_1863" result="shape"/>
</filter>
<filter id="filter2_d_7762_1863" x="21.3706" y="9.34058" width="5.57886" height="19" filterUnits="userSpaceOnUse" color-interpolation-filters="sRGB">
<feFlood flood-opacity="0" result="BackgroundImageFix"/>
<feColorMatrix in="SourceAlpha" type="matrix" values="0 0 0 0 0 0 0 0 0 0 0 0 0 0 0 0 0 0 127 0" result="hardAlpha"/>
<feOffset dy="0.5"/>
<feGaussianBlur stdDeviation="0.5"/>
<feComposite in2="hardAlpha" operator="out"/>
<feColorMatrix type="matrix" values="0 0 0 0 0 0 0 0 0 0 0 0 0 0 0 0 0 0 0.12 0"/>
<feBlend mode="normal" in2="BackgroundImageFix" result="effect1_dropShadow_7762_1863"/>
<feBlend mode="normal" in="SourceGraphic" in2="effect1_dropShadow_7762_1863" result="shape"/>
</filter>
</defs>
</svg>
