<svg width="161" height="39" viewBox="0 0 161 39" fill="none" xmlns="http://www.w3.org/2000/svg">
<g clip-path="url(#clip0_48_38)">
<path d="M32.4574 14.4977V26.4411C32.4574 28.8679 31.2102 31.1226 29.1582 32.4128L19.5555 38.4521C19.3528 38.5811 19.0824 38.4336 19.0824 38.194V33.9672C19.0824 33.2729 19.4265 32.6278 20.004 32.2408L26.1293 28.1552C26.9833 27.5838 27.4994 26.6254 27.4994 25.5994V17.3668C27.4994 16.7094 27.8496 16.1012 28.4209 15.7694L31.5358 13.9754C31.9474 13.742 32.4574 14.0369 32.4574 14.5099V14.4977Z" fill="white"/>
<path d="M31.714 10.9228L18.1486 18.7561C17.1963 19.3029 16.6127 20.3166 16.6127 21.4164V37.9184C16.6127 38.158 16.3546 38.3055 16.1519 38.1826L3.5818 30.8716C1.36391 29.5814 0 27.216 0 24.648V14.6582C0 11.6478 1.60352 8.8647 4.2146 7.35948L15.6542 0.748821C16.2256 0.41706 16.926 0.41706 17.4974 0.748821L20.3603 2.40149C20.9747 2.75782 20.9747 3.64252 20.3603 3.99886L6.70282 11.8813C5.75054 12.4281 5.16688 13.4418 5.16688 14.5415V24.0397C5.16688 25.1395 5.75054 26.1532 6.70282 26.7L11.2308 29.3111C11.3291 29.3663 11.4458 29.2988 11.4458 29.1882V19.7514C11.4458 17.8346 12.4656 16.0713 14.1245 15.1129L27.2475 7.53765C27.8618 7.18131 28.6237 7.21203 29.2073 7.61138L31.7693 9.36234C32.3283 9.74325 32.2976 10.5788 31.7078 10.9228H31.714Z" fill="white"/>
<path d="M47.2324 9.2168H51.6134V21.1159C51.6134 22.0925 51.747 22.9632 52.0142 23.7279C52.2814 24.4834 52.6776 25.1238 53.2027 25.6489C53.7371 26.1741 54.3959 26.5749 55.179 26.8513C55.9622 27.1185 56.8743 27.2521 57.9154 27.2521C58.9473 27.2521 59.8548 27.1185 60.638 26.8513C61.4303 26.5749 62.0891 26.1741 62.6143 25.6489C63.1486 25.1238 63.5494 24.4834 63.8166 23.7279C64.0838 22.9632 64.2174 22.0925 64.2174 21.1159V9.2168H68.5984V21.6411C68.5984 23.06 68.3588 24.3498 67.8797 25.5107C67.4006 26.6716 66.705 27.6667 65.7929 28.4959C64.8808 29.3251 63.7613 29.9654 62.4346 30.4169C61.1171 30.8683 59.6107 31.0941 57.9154 31.0941C56.2201 31.0941 54.7091 30.8683 53.3824 30.4169C52.0649 29.9654 50.95 29.3251 50.0379 28.4959C49.1258 27.6667 48.4302 26.6716 47.9511 25.5107C47.472 24.3498 47.2324 23.06 47.2324 21.6411V9.2168Z" fill="white"/>
<path d="M71.625 9.2168H76.0336V30.8177H71.625V9.2168Z" fill="white"/>
<path d="M78.0928 22.733C78.0928 21.4339 78.337 20.2638 78.8253 19.2227C79.3136 18.1723 79.9862 17.2786 80.843 16.5416C81.7091 15.7953 82.7318 15.224 83.9111 14.8279C85.0996 14.4225 86.3849 14.2198 87.7669 14.2198C88.3566 14.2198 88.937 14.2566 89.5083 14.3303C90.0887 14.404 90.6415 14.5054 91.1667 14.6344C91.7011 14.7634 92.1986 14.92 92.6593 15.1043C93.1292 15.2793 93.5438 15.4728 93.9031 15.6847V7.89014H97.9938V30.8178H93.9031V29.2837C93.5438 29.5325 93.1199 29.7674 92.6316 29.9886C92.1433 30.2097 91.6181 30.4032 91.0561 30.569C90.4941 30.7348 89.9091 30.8638 89.301 30.956C88.7021 31.0573 88.1078 31.108 87.5182 31.108C86.1362 31.108 84.8647 30.9053 83.7038 30.4999C82.5521 30.0945 81.5617 29.5233 80.7325 28.7862C79.9033 28.0491 79.2537 27.1692 78.7838 26.1466C78.3232 25.1147 78.0928 23.9768 78.0928 22.733ZM82.3909 22.733C82.3909 23.3871 82.5199 24.0044 82.7779 24.5849C83.045 25.1653 83.4228 25.6767 83.9111 26.1189C84.4086 26.5519 85.0029 26.8975 85.6939 27.1554C86.3941 27.4042 87.1773 27.5286 88.0433 27.5286C88.5961 27.5286 89.1489 27.4779 89.7018 27.3766C90.2546 27.266 90.7843 27.114 91.2911 26.9205C91.807 26.727 92.2861 26.4921 92.7284 26.2157C93.1798 25.9393 93.5714 25.6306 93.9031 25.2897V19.6373C93.4885 19.3056 93.0508 19.0246 92.5902 18.7942C92.1295 18.5639 91.6596 18.375 91.1805 18.2276C90.7014 18.0802 90.2177 17.9742 89.7294 17.9097C89.2411 17.836 88.7666 17.7992 88.3059 17.7992C87.3661 17.7992 86.5277 17.9282 85.7906 18.1861C85.0628 18.4349 84.4455 18.7804 83.9387 19.2227C83.4412 19.6649 83.0589 20.1855 82.7917 20.7843C82.5245 21.3832 82.3909 22.0328 82.3909 22.733Z" fill="white"/>
<path d="M100.468 22.6085C100.468 21.5029 100.693 20.4479 101.145 19.4437C101.596 18.4302 102.246 17.5365 103.093 16.7626C103.941 15.9886 104.978 15.3713 106.203 14.9107C107.438 14.45 108.838 14.2197 110.404 14.2197C111.961 14.2197 113.362 14.4546 114.606 14.9245C115.859 15.3852 116.918 16.0209 117.784 16.8317C118.66 17.6425 119.328 18.596 119.788 19.6924C120.258 20.7888 120.493 21.9636 120.493 23.2166C120.493 23.3732 120.488 23.5437 120.479 23.7279C120.479 23.903 120.47 24.0642 120.452 24.2116H105.028C105.203 24.6999 105.484 25.1468 105.871 25.5522C106.268 25.9576 106.76 26.3077 107.35 26.6025C107.94 26.8974 108.622 27.1277 109.395 27.2935C110.169 27.4502 111.026 27.5285 111.966 27.5285C112.906 27.5285 113.841 27.4317 114.772 27.2382C115.702 27.0356 116.591 26.7822 117.439 26.4781L118.821 29.6015C118.286 29.8503 117.743 30.0714 117.19 30.2649C116.646 30.4491 116.075 30.6058 115.476 30.7347C114.887 30.8545 114.265 30.9467 113.611 31.0112C112.966 31.0756 112.284 31.1079 111.565 31.1079C109.732 31.1079 108.124 30.8868 106.742 30.4445C105.36 30.0023 104.204 29.3988 103.273 28.6341C102.343 27.8694 101.642 26.9711 101.172 25.9392C100.703 24.9073 100.468 23.797 100.468 22.6085ZM116.154 21.0192C116.006 20.5677 115.776 20.1485 115.463 19.7615C115.158 19.3654 114.776 19.0245 114.315 18.7389C113.855 18.444 113.32 18.2137 112.712 18.0478C112.104 17.882 111.436 17.7991 110.708 17.7991C109.934 17.7991 109.23 17.8866 108.594 18.0617C107.958 18.2367 107.401 18.4717 106.922 18.7665C106.443 19.0613 106.042 19.4022 105.719 19.7892C105.406 20.1762 105.176 20.5861 105.028 21.0192H116.154Z" fill="white"/>
<path d="M122.151 22.7052C122.151 21.5075 122.368 20.3927 122.801 19.3608C123.243 18.3196 123.884 17.4213 124.722 16.6658C125.57 15.9011 126.602 15.3022 127.818 14.8692C129.043 14.4362 130.439 14.2197 132.005 14.2197C132.687 14.2197 133.373 14.2611 134.064 14.344C134.755 14.427 135.419 14.5467 136.055 14.7034C136.699 14.8508 137.303 15.0304 137.865 15.2424C138.427 15.4451 138.915 15.6708 139.33 15.9195L137.437 19.0014C136.543 18.5868 135.695 18.2828 134.894 18.0893C134.101 17.8958 133.295 17.7991 132.475 17.7991C131.535 17.7991 130.692 17.9235 129.946 18.1722C129.2 18.4118 128.564 18.7527 128.039 19.1949C127.523 19.628 127.127 20.1439 126.85 20.7428C126.583 21.3324 126.45 21.9774 126.45 22.6776C126.45 23.3778 126.592 24.0274 126.878 24.6262C127.173 25.2159 127.583 25.7272 128.108 26.1603C128.642 26.5841 129.283 26.9204 130.029 27.1691C130.784 27.4087 131.623 27.5285 132.544 27.5285C133.558 27.5285 134.511 27.3857 135.405 27.1C136.308 26.8144 137.146 26.4321 137.92 25.953L139.814 29.0349C139.325 29.3297 138.796 29.6061 138.224 29.8641C137.653 30.1128 137.04 30.3294 136.386 30.5136C135.741 30.6979 135.059 30.8407 134.341 30.9421C133.631 31.0526 132.894 31.1079 132.13 31.1079C130.573 31.1079 129.177 30.896 127.942 30.4722C126.708 30.0483 125.662 29.4633 124.805 28.717C123.948 27.9615 123.289 27.0724 122.829 26.0497C122.377 25.027 122.151 23.9122 122.151 22.7052Z" fill="white"/>
<path d="M142.467 7.89014H146.558V21.4339L154.187 14.51H160.447L151.92 22.1387L160.986 30.8178H154.85L148.783 24.9442L146.558 26.9343V30.8178H142.467V7.89014Z" fill="white"/>
</g>
<defs>
<clipPath id="clip0_48_38">
<rect width="161" height="38" fill="white" transform="translate(0 0.5)"/>
</clipPath>
</defs>
</svg>
